<svg xmlns="http://www.w3.org/2000/svg" xml:space="preserve" style="enable-background:new 0 0 15 10" viewBox="0 0 15 10"><path d="M7.5 7.4c1.3 0 2.3-1.1 2.3-2.4 0-1.3-1-2.4-2.3-2.4S5.2 3.7 5.2 5c0 1.3 1 2.4 2.3 2.4z" style="fill:#fc3636"/><path d="M14.8 4.3C13 2.1 10.3 0 7.5 0S2 2.1.2 4.3c-.3.4-.3.9 0 1.3.4.6 1.4 1.6 2.6 2.6 3.1 2.4 6.1 2.4 9.3 0 1.2-.9 2.2-2 2.6-2.6.4-.3.4-.9.1-1.3zM7.5 1.7c1.8 0 3.2 1.5 3.2 3.3 0 1.8-1.5 3.3-3.2 3.3-1.8 0-3.2-1.5-3.2-3.3 0-1.8 1.4-3.3 3.2-3.3z" style="fill:#fc3636"/></svg>