<svg xmlns="http://www.w3.org/2000/svg" xml:space="preserve" style="enable-background:new 0 0 48 50" viewBox="0 0 48 50"><path d="M13.1 42c-.1 0-.2 0-.3-.1s-.2-.1-.3-.2c-.1-.1-.1-.2-.2-.3v-.3c1.5-8.4-1.8-13.4-1.8-13.4-.1-.1-.1-.3-.1-.4 0-.2 0-.3.1-.4.5-.8.9-3 .9-5.4 0-3-.5-4.4-.7-4.6-.3-.2-.6-.3-.9-.3-.3 0-.7 0-1 .1-.2.1-.4.3-.6.5-.2.2-.3.4-.3.7-.2 1-.6 2.4-1.2 4-.6 1.8-1.3 3.8-1.6 5.5-.4 2.1-.5 4.2-.5 6.3 0 .2-.1.4-.2.5l-3 3.4-.2.2c-.1 0-.2.1-.3.1H.6c-.1 0-.2-.1-.3-.2-.1-.1-.1-.2-.2-.2-.1-.2-.1-.3-.1-.4v-.3c0-.1.1-.2.2-.3L3 33.3c0-2.1.2-4.2.5-6.3.3-1.8 1-3.9 1.6-5.8.5-1.5 1-2.9 1.1-3.8.1-.5.3-1 .6-1.4s.7-.7 1.2-.9c.6-.2 1.2-.3 1.8-.2.6.1 1.2.3 1.7.6 1.8 1.3 1.6 9 .4 11.7.8 1.4 3.2 6.4 1.8 14.2 0 .2-.1.3-.3.5 0 .1-.2.1-.3.1zM11.7 49.1c-.2 0-.3 0-.4-.1l-.3-.3c-.1-.1-.1-.3 0-.4 0-.2.1-.3.2-.4l2.6-2.8c.1-.1.2-.2.3-.2h.4s3 .5 5.6-.8c0 0 2.6-1.3 3.5-3.5.1-.2.2-.3.4-.4.2-.1.4-.1.6 0 .2.1.3.2.4.4.1.2.1.4 0 .6-1.1 2.8-4.1 4.3-4.3 4.3-2.4 1.2-5.1 1.1-6.1.9l-2.4 2.5s-.1.1-.2.1-.2.1-.3.1z" style="fill:#ebab03"/><path d="M33.2 23.1c-.2 0-.4-.1-.5-.2-.1-.1-.2-.3-.2-.6V3.4c0-1-1-1.9-2.2-1.9H14c-1.2 0-2.2.8-2.2 1.9v12.7c0 .2-.1.4-.2.6-.1.1-.3.2-.5.2s-.4-.1-.5-.2c-.1-.1-.2-.3-.2-.6V3.4C10.3 1.5 12 0 14 0h16.2C32.3 0 34 1.5 34 3.4v18.9c0 .1 0 .2-.1.3 0 .1-.1.2-.2.3-.1.1-.2.1-.3.2h-.2zM13.5 40.5c-.2 0-.4-.1-.5-.2-.1-.1-.2-.3-.2-.6 0-.2.1-.4.2-.6.1-.1.3-.2.5-.2h6.2c.2 0 .4.1.5.2.1.1.2.3.2.6 0 .2-.1.4-.2.6-.1.1-.3.2-.5.2h-6.2z" style="fill:#ebab03"/><path d="M33.1 5.8h-22c-.2 0-.4-.1-.5-.2-.1-.1-.2-.3-.2-.6 0-.2.1-.4.2-.6.1-.1.3-.2.5-.2H33c.2 0 .4.1.5.2.1.1.2.3.2.6 0 .2-.1.4-.2.6 0 .1-.2.2-.4.2zM17.4 36.1h-3.6c-.2 0-.4-.1-.5-.2-.1-.1-.2-.3-.2-.6 0-.2.1-.4.2-.6.1-.1.3-.2.5-.2h3.6c.2 0 .4.1.5.2.1.1.2.3.2.6 0 .2-.1.4-.2.6-.1.1-.3.2-.5.2zM33.8 50c-.1 0-.3 0-.4-.1l-.3-.3-.7-1.6-4.1-1.9c-.1 0-.2-.1-.2-.2l-7.8-8.2c-.1-.1-1-1.2-.7-2.4.2-.7.9-1.2 2-1.5 1.9-.5 4.2.9 5.7 2L21 21.3c-.3-.7-.3-1.5-.1-2.2.1-.4.3-.7.6-.9.3-.3.6-.5.9-.6.7-.3 1.5-.3 2.2 0 .7.3 1.2.8 1.5 1.5.1.2.1.4 0 .6-.1.2-.2.3-.4.4-.2.1-.4.1-.6 0-.2-.1-.3-.2-.4-.4-.1-.3-.4-.6-.7-.7-.3-.1-.7-.1-1 0-.1.1-.3.2-.4.3s-.2.3-.3.4c-.1.3-.1.7 0 1l6.8 15.7c.1.1.1.3.1.5l-.2.9c0 .1-.1.3-.2.4-.1.1-.2.2-.3.2h-.4c-.1 0-.3-.1-.4-.2-1-1-4.1-3.4-5.9-2.9-.6.1-.8.3-.8.5-.1.2.2.6.3.9l7.7 8.1 4.2 1.9c.2.1.3.2.4.4l.8 1.8c.1.1.1.2.1.4 0 .1-.1.3-.1.4l-.3.3h-.3z" style="fill:#ebab03"/><path d="M31.2 33.4c-.1 0-.3 0-.4-.1l-.3-.3-5.7-13.3c-.1-.2-.1-.4 0-.6.1-.2.2-.3.4-.4.2-.1.4-.1.6 0 .2.1.3.2.4.4l5.7 13.3c.1.1.1.2.1.4 0 .1-.1.3-.1.4l-.3.3c-.2-.1-.3-.1-.4-.1z" style="fill:#ebab03"/><path d="M29.3 29.1c-.1 0-.3 0-.4-.1l-.3-.3c-.3-.7-.3-1.5-.1-2.2.1-.4.3-.7.6-.9.3-.3.6-.5.9-.6.3-.2.7-.2 1.1-.2.4 0 .7.1 1.1.2.7.3 1.2.8 1.5 1.5 0 .1.1.2.1.3 0 .1 0 .2-.1.3 0 .1-.1.2-.2.3-.1.1-.2.1-.2.2-.1 0-.2.1-.3.1-.1 0-.2 0-.3-.1-.1 0-.2-.1-.3-.2-.1-.1-.1-.2-.2-.3-.1-.3-.4-.6-.7-.7-.1-.1-.3-.1-.5-.1s-.3 0-.5.1c-.1.1-.3.2-.4.3 0 0-.1.1-.1.3-.1.3-.1.7 0 1 .1.1.1.2.1.4 0 .1-.1.3-.1.4l-.3.3h-.4z" style="fill:#ebab03"/><path d="M35 32.1c-.1 0-.3 0-.4-.1l-.3-.3-2-4.6c-.1-.2-.1-.4 0-.6.1-.2.2-.3.4-.4.2-.1.4-.1.6 0 .2.1.3.2.4.4l2 4.6c.1.1.1.2.1.4 0 .1-.1.3-.1.4l-.3.3c-.2-.1-.3-.1-.4-.1z" style="fill:#ebab03"/><path d="M33.7 29.2c-.1 0-.3 0-.4-.1l-.3-.3c-.3-.7-.3-1.5-.1-2.2.1-.4.3-.7.6-.9.3-.3.6-.5.9-.6.3-.2.7-.2 1.1-.2.4 0 .7.1 1.1.2.7.3 1.2.8 1.5 1.5 0 .1.1.2.1.3 0 .1 0 .2-.1.3 0 .1-.1.2-.2.3-.1.1-.2.1-.2.2-.1 0-.2.1-.3.1-.1 0-.2 0-.3-.1-.1 0-.2-.1-.3-.2-.1-.1-.1-.2-.2-.3-.1-.3-.4-.6-.7-.7-.1-.1-.3-.1-.5-.1s-.3 0-.5.1c-.1.1-.3.2-.4.3-.1.1-.2.3-.3.4-.1.3-.1.7 0 1 .1.1.1.2.1.4 0 .1-.1.3-.1.4l-.3.3c.1-.2-.1-.1-.2-.1z" style="fill:#ebab03"/><path d="M39 31.3c-.1 0-.3 0-.4-.1l-.3-.3-1.6-3.9c-.1-.2-.1-.4 0-.6.1-.2.2-.3.4-.4.2-.1.4-.1.6 0 .2.1.3.2.4.4l1.6 3.8c.1.1.1.2.1.4 0 .1-.1.3-.1.4l-.3.3H39z" style="fill:#ebab03"/><path d="M38.1 29.1c-.1 0-.3 0-.4-.1l-.3-.3c-.2-.3-.2-.7-.3-1.1 0-.4 0-.8.2-1.1.1-.4.3-.7.6-.9.3-.3.6-.5.9-.6.3-.2.7-.2 1.1-.2.4 0 .7.1 1.1.2.3.1.7.4.9.6.3.3.5.6.6.9.1.2.1.4 0 .6-.1.2-.2.3-.4.4-.2.1-.4.1-.6 0-.2-.1-.3-.2-.4-.4-.1-.2-.2-.3-.3-.4s-.3-.2-.4-.3c-.2-.1-.3-.1-.5-.1s-.3 0-.5.1-.3.2-.4.3c-.1.1-.2.3-.3.4s-.1.3-.1.5.1.3.1.5c.1.1.1.2.1.4 0 .1-.1.3-.1.4l-.3.3c-.1-.1-.2-.1-.3-.1z" style="fill:#ebab03"/><path d="M47.2 44.3c-.1 0-.3 0-.4-.1l-.3-.3-.7-1.7c0-.1-.1-.2-.1-.4l.2-3.5L41.1 27c-.1-.2-.1-.4 0-.6.1-.2.2-.3.4-.4.2-.1.4-.1.6 0 .2.1.3.2.4.4l5 11.4c0 .1.1.2.1.4l-.2 3.5.7 1.5c.1.1.1.2.1.4 0 .1-.1.3-.1.4l-.3.3h-.6z" style="fill:#ebab03"/></svg>