<svg xmlns="http://www.w3.org/2000/svg" xml:space="preserve" style="enable-background:new 0 0 49.7 49.7" viewBox="0 0 49.7 49.7"><path d="M15.2 25.8s-.1 0 0 0L1.4 25c-.5 0-1-.3-1.2-.8-.2-.5-.2-1 0-1.5.1-.1 1.8-3.2 5.1-5.8 4.4-3.6 9.6-4.7 14.9-3.4.4.1.8.4 1 .8.2.4.2.9 0 1.3L16.5 25c-.2.5-.7.8-1.3.8z" style="fill:#ff5b5b"/><path d="M26.2 49.7c-.2 0-.5-.1-.7-.2-.5-.2-.8-.7-.8-1.2l-.9-13.7c0-.6.3-1.2.8-1.5l9.3-4.6c.4-.2.9-.2 1.3 0s.7.6.8 1c1.4 5.3.2 10.5-3.4 14.9-2.7 3.3-5.7 5-5.8 5.1-.1.1-.3.2-.6.2z" style="fill:#ff193d"/><path d="m47.2 12.2-9.8-9.8c-.4-.4-1-.5-1.5-.4-6.6 1.9-11.9 5-16 9-.8.8-1.7 1.8-2.4 2.7-2.2 2.8-4 6.1-5.5 9.8-.9 2.4-1.6 4.9-2.2 7.6-1 4.6-1 7.9-1 8.1 0 .4.2.8.4 1.1.3.3.7.4 1.1.4.1 0 3.4-.1 8.1-1 2.6-.5 5.2-1.3 7.6-2.2 3.7-1.4 7-3.3 9.8-5.5 1-.8 1.9-1.6 2.7-2.4 4.1-4.1 7.1-9.4 9-16 .3-.4.1-1-.3-1.4z" style="fill:#e1f1fa"/><path d="m19.5 37.5-7.3-7.3c-.5-.5-1.4-.6-2-.1-.5.4-.9.8-1.3 1.2-5.1 5.1-5.3 13-5.3 13.4 0 .4.2.8.4 1.1.3.3.7.4 1.1.4.3 0 8.2-.2 13.4-5.3.4-.4.8-.9 1.2-1.3.4-.7.3-1.5-.2-2.1z" style="fill:#fff261"/><path d="m12.2 23.4-4.5 4.5c-.3.3-.4.7-.4 1.1 0 .4.2.8.4 1.1l12 12c.3.3.7.4 1.1.4s.8-.2 1.1-.4l4.5-4.5-14.2-14.2z" style="fill:#1b3b6b"/><path d="M31.8 22.5c-1.2 0-2.4-.5-3.3-1.4-1.8-1.8-1.8-4.7 0-6.5.9-.9 2-1.4 3.3-1.4 1.2 0 2.4.5 3.3 1.4.9.9 1.4 2 1.4 3.3 0 1.2-.5 2.4-1.4 3.3-.9.8-2 1.3-3.3 1.3z" style="fill:#06ccab"/><path d="M31.8 23.9c-1.6 0-3.2-.6-4.3-1.8-2.4-2.4-2.4-6.3 0-8.6 1.2-1.2 2.7-1.8 4.3-1.8 1.6 0 3.2.6 4.3 1.8 1.2 1.2 1.8 2.7 1.8 4.3 0 1.6-.6 3.2-1.8 4.3-1.1 1.2-2.6 1.8-4.3 1.8zm0-9.1c-.8 0-1.6.3-2.2.9-1.2 1.2-1.2 3.1 0 4.3.6.6 1.4.9 2.2.9.8 0 1.6-.3 2.2-.9.6-.6.9-1.4.9-2.2 0-.8-.3-1.6-.9-2.2-.6-.5-1.3-.8-2.2-.8z" style="fill:#1b3b6b"/><path d="M49.2.4c-.3-.2-.7-.4-1.1-.4-.2 0-5.6.1-12.2 2l11.7 11.7c2-6.6 2-12 2-12.2.1-.4-.1-.8-.4-1.1z" style="fill:#ff5b5b"/><path d="m47.2 12.2-4.9-4.9-33 33.1c.3.3.7.4 1.1.4.1 0 3.4-.1 8.1-1 2.6-.5 5.2-1.3 7.6-2.2 3.7-1.4 7-3.3 9.8-5.5 1-.8 1.9-1.6 2.7-2.4 4.1-4.1 7.1-9.4 9-16 .2-.5 0-1.1-.4-1.5z" style="fill:#cdebfc"/><path d="m19.5 37.5-3.7-3.7L4 45.7c.3.3.7.4 1.1.4.3 0 8.2-.2 13.4-5.3.4-.4.8-.9 1.2-1.3.4-.6.3-1.4-.2-2z" style="fill:#fdbf00"/><path d="M19.2 30.4 13.7 36l6 6c.3.3.7.4 1.1.4.4 0 .8-.2 1.1-.4l4.5-4.5-7.2-7.1z" style="fill:#001035"/><path d="m35.1 14.6-6.5 6.5c.9.9 2 1.4 3.3 1.4 1.2 0 2.4-.5 3.3-1.4.9-.9 1.4-2 1.4-3.3-.1-1.2-.6-2.4-1.5-3.2z" style="fill:#1cadb5"/><path d="M36.1 13.5 34 15.7c.6.6.9 1.4.9 2.2 0 .8-.3 1.6-.9 2.2s-1.4.9-2.2.9c-.8 0-1.6-.3-2.2-.9l-2.1 2.1c1.2 1.2 2.7 1.8 4.3 1.8 1.6 0 3.2-.6 4.3-1.8 1.2-1.2 1.8-2.7 1.8-4.3 0-1.7-.6-3.2-1.8-4.4z" style="fill:#001035"/><path d="m49.2.4-7.4 7.4 5.8 5.8c2-6.6 2-12 2-12.2.1-.3-.1-.7-.4-1z" style="fill:#ff193d"/></svg>