<svg xmlns="http://www.w3.org/2000/svg" xml:space="preserve" style="enable-background:new 0 0 15 15" viewBox="0 0 15 15"><path d="M14.7 5.1c-.2-.3-.5-.4-.9-.4h-.9L9.4.3c-.2-.3-.6-.4-.9-.2-.3.3-.3.7-.1 1l2.9 3.6H3.5l2.9-3.6c.2-.3.2-.7 0-.9-.3-.2-.7-.2-.9 0l-.1.1-3.5 4.4h-.8C.5 4.7 0 5.3 0 5.9v.2l1.5 7.5c.1.8.8 1.4 1.6 1.4h8.8c.8 0 1.5-.6 1.6-1.3L15 6.1c0-.3 0-.7-.3-1zm-9.1 6.2c0 .4-.3.7-.6.7s-.6-.3-.6-.7V8.6c-.1-.4.2-.6.6-.6.3 0 .6.3.6.7v2.6zm2.5 0c0 .4-.3.7-.6.7s-.6-.3-.6-.7V8.6c0-.4.2-.6.6-.6.3 0 .6.3.6.7v2.6zm2.6 0c0 .4-.3.7-.6.7s-.6-.3-.6-.7V8.6c-.1-.4.2-.6.5-.6s.6.3.6.7v2.6z" style="fill:#fff"/></svg>