<svg xmlns="http://www.w3.org/2000/svg" xml:space="preserve" style="enable-background:new 0 0 15 15" viewBox="0 0 15 15"><path d="M12.8 2.2C11.4.8 9.5 0 7.5 0S3.6.8 2.2 2.2C.8 3.6 0 5.5 0 7.5s.8 3.9 2.2 5.3C3.6 14.2 5.5 15 7.5 15s3.9-.8 5.3-2.2c1.4-1.4 2.2-3.3 2.2-5.3s-.8-3.9-2.2-5.3zM7.5 7c1.2 0 2.1 1 2.1 2.1 0 1-.7 1.8-1.5 2-.1.1-.1.1-.1.2v.4c0 .3-.2.5-.4.5-.3 0-.6-.2-.6-.5v-.4c0-.1 0-.1-.1-.1-.9-.2-1.5-1.1-1.5-2 0-.3.2-.5.5-.5s.5.2.5.5c0 .7.6 1.2 1.3 1.2.6 0 1-.5 1.1-1.1C8.7 8.5 8.2 8 7.5 8 6.3 8 5.4 7 5.4 5.9c0-1 .7-1.8 1.5-2 .1-.1.1-.1.1-.2v-.4c0-.3.2-.5.5-.5.2 0 .5.2.5.5v.4c0 .1 0 .1.1.1.9.2 1.5 1.1 1.5 2 0 .3-.2.5-.5.5s-.5-.2-.5-.5c0-.7-.6-1.2-1.3-1.2-.6 0-1 .5-1.1 1.1.1.8.6 1.3 1.3 1.3z" style="fill:#fff"/></svg>