<svg xmlns="http://www.w3.org/2000/svg" xml:space="preserve" style="enable-background:new 0 0 15 15" viewBox="0 0 15 15"><path d="M10.2 5.3c-2.7 0-4.8 2.2-4.8 4.8 0 2.7 2.2 4.8 4.8 4.8 2.7 0 4.8-2.2 4.8-4.8 0-2.6-2.2-4.8-4.8-4.8zm0 4.4c.7 0 1.3.6 1.3 1.3 0 .6-.4 1.1-.9 1.2v1h-.9v-1c-.5-.2-.9-.7-.9-1.2h.9c0 .2.2.4.4.4s.4-.2.4-.4-.2-.4-.4-.4c-.7 0-1.3-.6-1.3-1.3 0-.6.4-1.1.9-1.2v-1h.9v1c.5.2.9.7.9 1.2h-.9c0-.2-.2-.4-.4-.4-.3-.1-.5.1-.5.4 0 .2.2.4.5.4zM4.9 5.3c2.7 0 4.8-1.2 4.8-2.6S7.6 0 4.9 0 0 1.2 0 2.7s2.2 2.6 4.9 2.6zM0 9.9v.7c0 1.5 2.2 2.6 4.9 2.6h.5c-.3-.5-.6-1.1-.7-1.7-2-.1-3.8-.7-4.7-1.6zM4.5 10.6v-.4c0-.5.1-.9.2-1.3-2-.1-3.8-.7-4.7-1.6V8c0 1.4 2 2.5 4.5 2.6zM4.9 8c.3-.7.7-1.3 1.2-1.8H4.9C2.8 6.2 1 5.6 0 4.6v.7C0 6.8 2.2 8 4.9 8z" style="fill:#fff"/></svg>