<svg xmlns="http://www.w3.org/2000/svg" xml:space="preserve" style="enable-background:new 0 0 20 20" viewBox="0 0 20 20"><path d="M10 0C8 0 6.1.6 4.4 1.7 2.8 2.8 1.5 4.3.8 6.2 0 8-.2 10 .2 12s1.3 3.7 2.7 5.1c1.4 1.4 3.2 2.4 5.1 2.7 1.9.4 4 .2 5.8-.6 1.8-.8 3.4-2 4.5-3.7C19.4 13.9 20 12 20 10c0-2.7-1.1-5.2-2.9-7.1C15.2 1.1 12.7 0 10 0zm0 17.5c-.3 0-.5-.1-.7-.2-.3-.1-.4-.3-.5-.6-.1-.2-.1-.5-.1-.8.1-.3.2-.5.4-.7.2-.2.4-.3.7-.4.3-.1.5 0 .8.1.2.1.5.3.6.5.1.2.2.5.2.7 0 .4-.1.7-.4.9-.3.4-.6.5-1 .5zm2.3-11.2L10.7 13c0 .1-.1.3-.2.4-.1.1-.3.1-.4.1-.1 0-.3 0-.4-.1-.1-.1-.2-.2-.2-.4L7.7 6.3c-.1-.3-.1-.7 0-1.1.1-.3.2-.7.5-1 .2-.2.5-.5.8-.6.3-.2.7-.2 1-.2.4 0 .7.1 1 .2.3.2.6.4.8.7.2.3.4.6.4 1 .2.3.2.6.1 1z" style="fill:#fc3636"/></svg>