<svg xmlns="http://www.w3.org/2000/svg" xml:space="preserve" style="enable-background:new 0 0 15 15" viewBox="0 0 15 15"><path d="m11.4 12.8-.5-1.7c-3.7 3.2-6.9.3-7.4-.6l.3-.2c.1-.1.2-.2.2-.4 0-.1-.1-.3-.2-.3L1.1 8.5H.9c-.1 0-.2 0-.2.1-.1 0-.2.1-.2.2v2.8c0 .1.1.3.2.3 0 .1.1.1.2.1s.1 0 .2-.1l.1-.1c2.4 3.7 7.8 4 10.8 1.6-.3 0-.5-.3-.6-.6zM2.6 8.5c-.3-1.6.8-4.8 4.5-5.2 0 .1.1.3.2.3h.2c.1 0 .2 0 .2-.1L10.1 2c.1-.1.2-.2.2-.3 0-.1-.1-.3-.2-.3L7.7.1C7.6 0 7.6 0 7.5 0h-.2c-.2.1-.2.2-.2.4v.4C3.5.8-.2 4 0 8.3c0 0 .5-.5.9-.5.3 0 .4.1 1.7.7zM15 10.7c0-.1-.1-.3-.3-.3l-.3-.1c.9-2.3.6-6.4-3.5-8.6v.2c0 .3-.2.7-.5.9l-1.3.8c1.2.3 4.1 2.5 2.8 6l-.2-.1h-.1c-.1 0-.2 0-.3.1-.1.1-.1.2-.1.4l.8 2.6c0 .1.1.2.3.3h.1c.1 0 .2 0 .3-.1l2.2-1.8c.1-.1.1-.2.1-.3z" style="fill:#4d76ff"/></svg>