<svg xmlns="http://www.w3.org/2000/svg" xml:space="preserve" style="enable-background:new 0 0 15 15" viewBox="0 0 15 15"><path d="M4.1.7c0-.4-.3-.7-.7-.7s-.8.3-.8.7v.7c0 .4.3.7.8.7s.8-.3.8-.7V.7zM12.4.7c0-.4-.4-.7-.8-.7s-.8.3-.8.7v.7c0 .4.3.7.8.7s.8-.3.8-.7V.7zM0 5.4v8.2c0 .8.7 1.4 1.5 1.4h12c.8 0 1.5-.6 1.5-1.4V5.4H0zm4.5 7.1c0 .4-.3.7-.8.7H3c-.4 0-.8-.3-.8-.7v-.7c0-.4.3-.7.8-.7h.8c.4 0 .8.3.8.7v.7zm0-3.9c0 .4-.3.7-.8.7H3c-.4 0-.8-.3-.8-.7v-.7c0-.4.3-.7.8-.7h.8c.4 0 .8.3.8.7v.7zm4.1 3.9c0 .4-.3.7-.8.7h-.7c-.4 0-.8-.3-.8-.7v-.7c0-.4.3-.7.8-.7h.8c.4 0 .8.3.8.7v.7zm0-3.9c0 .4-.3.7-.8.7h-.7c-.4 0-.7-.3-.7-.7v-.7c0-.4.3-.7.8-.7H8c.4 0 .8.3.8.7v.7zm4.2 3.9c0 .4-.3.7-.8.7h-.8c-.4 0-.8-.3-.8-.7v-.7c0-.4.3-.7.8-.7h.8c.4 0 .8.3.8.7v.7zm0-3.9c0 .4-.3.7-.8.7h-.8c-.4 0-.8-.3-.8-.7v-.7c0-.4.3-.7.8-.7h.8c.4 0 .8.3.8.7v.7z" style="fill:#014433"/><path d="M15 4.6V2.5c0-.8-.7-1.4-1.5-1.4h-.4v.4c0 .8-.7 1.4-1.5 1.4s-1.5-.6-1.5-1.4v-.4H4.9v.4c0 .8-.7 1.4-1.5 1.4s-1.5-.7-1.5-1.5v-.3h-.4C.7 1.1 0 1.7 0 2.5v2.1h15z" style="fill:#014433"/></svg>