<svg xmlns="http://www.w3.org/2000/svg" xml:space="preserve" style="enable-background:new 0 0 13 15" viewBox="0 0 13 15"><path d="m.9 4.4.8 9.4c0 .7.6 1.2 1.3 1.2h7c.7 0 1.2-.5 1.3-1.2l.8-9.4H.9zm3.4 8.8c-.2 0-.4-.2-.4-.4l-.4-7.1c0-.2.2-.5.4-.5s.4.2.5.4l.4 7.1c0 .3-.2.5-.5.5zm2.6-.4c0 .2-.2.4-.4.4s-.4-.2-.4-.4V5.7c0-.2.2-.4.4-.4s.4.2.4.4v7.1zm2.6-7.1-.4 7.1c0 .2-.2.4-.5.4-.2 0-.4-.2-.4-.5l.4-7.1c0-.2.2-.4.5-.4.3.1.4.3.4.5zM12.1 1.8H9.5v-.5C9.5.6 9 0 8.2 0H4.8C4 0 3.5.6 3.5 1.3v.4H.9c-.5.1-.9.5-.9.9 0 .5.4.9.9.9h11.3c.5 0 .9-.4.9-.9-.1-.4-.5-.8-1-.8zm-3.4 0H4.3v-.5c0-.2.2-.4.4-.4h3.5c.2 0 .4.2.4.4v.5z" style="fill:#fc3636"/></svg>