<svg xmlns="http://www.w3.org/2000/svg" xmlns:xlink="http://www.w3.org/1999/xlink" xml:space="preserve" style="enable-background:new 0 0 15 15" viewBox="0 0 15 15"><defs><path id="a" d="M0 0h15v15H0z"/></defs><clipPath id="b"><use xlink:href="#a" style="overflow:visible"/></clipPath><g style="clip-path:url(#b)"><path d="M7.9 2.9.7 10.1c-.3.3-.4.6-.5 1L0 13.6c0 .2 0 .4.1.5.1.2.1.3.3.5.1.1.3.2.4.3.1.1.3.1.5.1h.1l2.5-.3c.4 0 .7-.2 1-.5L12.1 7 7.9 2.9zM14.5 2.3 12.7.5c-.2-.2-.3-.3-.5-.4-.2-.1-.4-.1-.7-.1-.2 0-.4 0-.6.1-.2.1-.4.2-.5.4L8.7 2.2l4.1 4.1 1.7-1.7c.2-.2.3-.3.4-.5.1-.2.1-.4.1-.6s0-.4-.1-.6c-.1-.3-.2-.4-.4-.6z" style="fill:#4d76ff"/></g></svg>