<svg xmlns="http://www.w3.org/2000/svg" xml:space="preserve" style="enable-background:new 0 0 15 14.9" viewBox="0 0 15 14.9"><g><path d="M9.4 8c-.4 0-.6.3-.6.7v2.5c0 .3-.3.6-.6.6H6.3V2.5c0-.5-.3-1-.9-1.2l-.2-.1h2.9c.3 0 .6.3.6.6v1.9c0 .3.3.6.6.6s.7-.3.7-.6V1.9C10 .8 9.2 0 8.1 0H1.2C.6 0 0 .6 0 1.2v11.1c0 .5.3 1 .9 1.2l3.8 1.2c.1 0 .3.1.4.1.7 0 1.3-.6 1.3-1.2V13h1.9c1 0 1.9-.8 1.9-1.9V8.7c-.2-.4-.5-.7-.8-.7z" style="fill:#fff"/><path d="m14.8 5.7-2.5-2.5c-.2-.2-.4-.2-.7-.1-.2.1-.4.3-.4.6v1.9H8.8c-.3 0-.6.3-.6.6s.3.6.6.6h2.5v1.9c0 .2.2.5.4.6s.5 0 .7-.1l2.5-2.5c.2-.3.2-.7-.1-1z" style="fill:#fff"/></g></svg>