<svg xmlns="http://www.w3.org/2000/svg" xml:space="preserve" style="enable-background:new 0 0 15 15" viewBox="0 0 15 15"><path d="m14.6 12.4-2.1-2.1c.7-1.1 1.1-2.2 1.1-3.6 0-3.8-3-6.8-6.8-6.8S0 3 0 6.8s3 6.8 6.8 6.8c1.4 0 2.6-.4 3.6-1.1l2.1 2.1c.6.6 1.5.6 2.1 0 .5-.7.5-1.5 0-2.2zM6.8 12c-2.9 0-5.2-2.3-5.2-5.2s2.3-5.2 5.2-5.2S12 3.8 12 6.8 9.6 12 6.8 12z" style="fill:#fff"/><path d="M9.8 6H7.5V3.8c0-.5-.3-.8-.7-.8s-.8.4-.8.8V6H3.8c-.4 0-.8.3-.8.8s.3.8.8.8H6v2.2c0 .4.3.8.8.8s.8-.3.8-.8V7.5h2.2c.4 0 .8-.3.8-.8s-.5-.7-.8-.7z" style="fill:#fff"/></svg>