<svg xmlns="http://www.w3.org/2000/svg" xml:space="preserve" style="enable-background:new 0 0 23.5 23.5" viewBox="0 0 23.5 23.5"><path d="M22.6 9.7H13c-.4 0-.8.3-.8.8v3.1c0 .4.3.8.8.8h5.4c-.6 1.5-1.7 2.8-3.1 3.6l2.3 4c3.7-2.1 5.9-5.9 5.9-10.1 0-.6 0-1-.1-1.5-.1-.4-.4-.7-.8-.7z" style="fill:#167ee6"/><path d="M11.8 18.9c-2.6 0-5-1.4-6.2-3.6l-4 2.3c2 3.5 5.8 5.9 10.2 5.9 2.1 0 4.1-.6 5.9-1.6l-2.3-4c-1.1.7-2.3 1-3.6 1z" style="fill:#12b347"/><path d="m17.6 22-2.3-4c-1.1.6-2.3 1-3.6 1v4.6c2.2-.1 4.2-.6 5.9-1.6z" style="fill:#0f993e"/><path d="M4.6 11.8c0-1.3.4-2.5 1-3.6l-4-2.3C.6 7.6 0 9.6 0 11.8s.6 4.1 1.6 5.9l4-2.3c-.6-1.1-1-2.3-1-3.6z" style="fill:#ffd500"/><path d="M11.8 4.6c1.7 0 3.3.6 4.5 1.6.3.3.7.2 1 0L19.5 4c.3-.3.3-.8 0-1.1C17.4 1.1 14.7 0 11.8 0 7.4 0 3.6 2.4 1.6 5.9l4 2.3C6.8 6 9.1 4.6 11.8 4.6z" style="fill:#ff4b26"/><path d="M16.3 6.2c.3.3.7.2 1 0L19.5 4c.3-.3.3-.8 0-1.1C17.4 1.1 14.7 0 11.8 0v4.6c1.7 0 3.3.6 4.5 1.6z" style="fill:#d93f21"/></svg>