<svg width="15" height="15" viewBox="0 0 15 15" fill="none" xmlns="http://www.w3.org/2000/svg">
    <path d="M10.1619 4.35131L7.49854 7.27664V3.14686e-05C7.87064 -0.0030285 8.21052 0.217289 8.37459 0.566126L9.93626 3.87089C9.93919 3.87701 9.94212 3.88314 9.94505 3.89232L10.1619 4.35131Z" fill="#FAF180"/>
    <path d="M4.8352 4.35131L7.49854 7.27664V3.14686e-05C7.12643 -0.0030285 6.78655 0.217289 6.62248 0.566126L5.06081 3.87089C5.05788 3.87701 5.05495 3.88314 5.05202 3.89232L4.8352 4.35131Z" fill="#FFAA39"/>
    <path d="M14.9084 5.53858L7.49854 7.27664L10.1619 4.35131L10.6453 4.42475C10.6512 4.42475 10.6629 4.42781 10.6688 4.42781L14.1642 4.96025C14.4894 5.00921 14.7707 5.22646 14.9084 5.53858Z" fill="#FFC943"/>
    <path d="M14.7033 6.69831L11.8114 9.64506L7.49854 7.27664L14.9084 5.53858C15.0842 5.93026 15.0022 6.39537 14.7033 6.69831Z" fill="#FFAA39"/>
    <path d="M12.1542 14.7613L7.49854 7.27664L11.8085 9.64506L11.8964 10.1714L12.4912 13.8066C12.5527 14.1646 12.4238 14.5318 12.1542 14.7613Z" fill="#FFC943"/>
    <path d="M12.1542 14.7613C11.8525 15.0276 11.4247 15.0735 11.0789 14.8807L7.95561 13.164C7.94975 13.161 7.94096 13.1579 7.93217 13.1548L7.49854 12.9162V7.27664L12.1542 14.7613Z" fill="#FFAA39"/>
    <path d="M7.49854 7.27664V12.9162L7.0649 13.1548C7.05904 13.1579 7.04732 13.161 7.04146 13.164L3.91812 14.8807C3.56946 15.0765 3.14461 15.0276 2.84283 14.7613L7.49854 7.27664Z" fill="#FAF180"/>
    <path d="M7.49854 7.27664L2.84576 14.7613C2.5762 14.5318 2.44435 14.1646 2.50588 13.8066L3.10066 10.1714L3.18856 9.64506L7.49854 7.27664Z" fill="#FFC943"/>
    <path d="M7.49854 7.27664L3.18856 9.64506L0.296689 6.69831C-0.00216709 6.39843 -0.084206 5.93332 0.0915917 5.53858L7.49854 7.27664Z" fill="#FFAA39"/>
    <path d="M7.49854 7.27664L0.0886617 5.53858C0.22637 5.22646 0.507646 5.0092 0.832872 4.96024L4.32539 4.43087C4.33125 4.43087 4.34297 4.42781 4.34883 4.42781L4.83227 4.35437L7.49854 7.27664Z" fill="#FFC943"/>
</svg>
