<svg xmlns="http://www.w3.org/2000/svg" xml:space="preserve" style="enable-background:new 0 0 17 14" viewBox="0 0 17 14"><path d="M5.3 14c6.4 0 9.9-5.4 9.9-10.1v-.5c.7-.4 1.3-1 1.8-1.7-.6.3-1.3.5-2 .6.7-.4 1.3-1.1 1.5-2-.7.4-1.4.7-2.2.9C13.7.4 12.8 0 11.8 0c-2 0-3.5 1.6-3.5 3.5 0 .3 0 .5.1.8C5.5 4.2 2.9 2.8 1.2.6.9 1.2.7 1.8.7 2.4c0 1.2.6 2.3 1.6 2.9-.6 0-1.1-.2-1.6-.4C.7 6.6 1.9 8 3.5 8.4c-.3.1-.6.2-.9.2-.2 0-.4 0-.7-.1.4 1.4 1.7 2.4 3.3 2.5-1.2.9-2.7 1.5-4.3 1.5H.1c1.4.9 3.3 1.5 5.2 1.5z" style="fill:#4db6f1"/></svg>