<svg xmlns="http://www.w3.org/2000/svg" xml:space="preserve" style="enable-background:new 0 0 16.7 20" viewBox="0 0 16.7 20"><path d="M8.2 9.6c1.3 0 2.5-.5 3.4-1.4 1-.9 1.4-2.1 1.4-3.4 0-1.3-.5-2.5-1.4-3.4C10.7.5 9.5 0 8.2 0 6.9 0 5.7.5 4.8 1.4c-.9.9-1.4 2.1-1.4 3.4 0 1.3.5 2.5 1.4 3.4.9 1 2.1 1.4 3.4 1.4zM16.6 15.4c0-.4-.1-.8-.2-1.3s-.2-.9-.3-1.3c-.1-.4-.3-.8-.5-1.2-.2-.4-.5-.7-.8-1-.3-.3-.7-.5-1.1-.7-.4-.2-.9-.3-1.4-.3-.2 0-.4.1-.8.3-.2.2-.5.3-.8.5-.3.2-.6.3-1.1.5-.4.1-.9.2-1.3.2s-.9-.1-1.3-.2-.8-.3-1.1-.5c-.3-.2-.6-.4-.8-.5-.3-.2-.5-.2-.7-.2-.5 0-1 .1-1.4.3-.4.2-.8.4-1.1.7-.3.3-.6.6-.8 1-.2.4-.4.8-.5 1.2-.1.4-.2.8-.3 1.3-.2.4-.2.8-.3 1.2v1.2c0 1 .3 1.9 1 2.5.6.6 1.5.9 2.5.9h9.6c1 0 1.9-.3 2.5-.9.7-.6 1-1.5 1-2.5.1-.4.1-.8 0-1.2z" style="fill:#81b4a7"/></svg>