<svg xmlns="http://www.w3.org/2000/svg" xml:space="preserve" style="enable-background:new 0 0 20 20" viewBox="0 0 20 20"><path d="M11 .4c-.3-.2-.6-.4-1-.4s-.7.2-1 .4L7.8 1.6l-.1.1h-.1L6 1.2c-.3-.1-.7 0-1 .1-.3.2-.5.5-.6.9l-.5 1.6v.1h-.1l-1.6.5c-.4.1-.7.3-.9.6-.1.3-.2.7-.1 1l.4 1.6v.2L.4 9c-.3.3-.4.6-.4 1s.1.7.4 1l1.2 1.2v.2L1.2 14c-.1.3 0 .7.1 1 .2.3.5.5.8.6l1.6.4h.1v.1l.4 1.6c.1.3.3.6.6.8s.7.2 1 .1l1.6-.4h.2L9 19.6c.3.3.6.4 1 .4s.7-.1 1-.4l1.2-1.2.1-.1h.1l1.6.4c.3.1.7 0 1-.1.3-.2.5-.5.6-.8l.4-1.6v-.1h.1l1.6-.4c.3-.1.6-.3.8-.6.2-.3.2-.7.1-1l-.4-1.6v-.2l1.2-1.2c.3-.3.4-.6.4-1s-.1-.7-.4-1l-1.2-1.2v-.2l.6-1.7c.1-.3 0-.7-.1-1-.2-.3-.5-.5-.8-.6L16.3 4h-.1v-.1l-.4-1.6c-.1-.3-.3-.6-.6-.8-.3-.2-.7-.2-1-.1l-1.6.4h-.1s-.1 0-.1-.1L11 .4zM8.5 13.7c.1 0 .3-.1.3-.1L14.4 8c.3-.3.3-.7 0-1l-.3-.3c-.3-.3-.7-.3-1 0l-4.6 4.6-1.7-1.9c-.3-.3-.7-.3-1 0l-.3.4c-.3.3-.3.7 0 1l2.7 2.7c.1.1.2.2.3.2z" style="fill-rule:evenodd;clip-rule:evenodd;fill:#fff"/></svg>