<svg xmlns="http://www.w3.org/2000/svg" xml:space="preserve" style="enable-background:new 0 0 16 20" viewBox="0 0 16 20"><path d="M11.3 7.9c1.4-1.2 3.3-2.8 3.4-6.8H16V0H0v1.2h1.2C1.4 5.1 3.3 6.7 4.6 8c1 .7 1.6 1.2 1.6 2s-.5 1.3-1.5 2.1c-1.4 1.2-3.3 2.8-3.4 6.8H0V20h16v-1.2h-1.2c-.2-3.9-2.1-5.5-3.4-6.8-.9-.8-1.5-1.3-1.5-2.1-.1-.7.5-1.2 1.4-2zm-3.9 6.5c-.2 0-.4.1-.6.2L3.1 16c.6-1.5 1.6-2.4 2.5-3.1 1-.8 1.9-1.6 1.9-2.9v4.4zm3.1-1.5c.9.7 1.9 1.6 2.5 3.1l-3.8-1.5c-.2-.1-.4-.1-.6-.2V10c0 1.3.9 2.1 1.9 2.9zM3 3.9c-.3-.7-.5-1.6-.5-2.7h11c-.1 1.1-.3 2-.6 2.7H3z" style="fill:#fff"/></svg>