<svg xmlns="http://www.w3.org/2000/svg" xml:space="preserve" style="enable-background:new 0 0 15 15" viewBox="0 0 15 15"><path d="M8.2.3C8 .1 7.8 0 7.5 0c-.3 0-.5.1-.7.3l-.9.9h-.2L4.5.9c-.2-.1-.5 0-.7.1-.3.1-.5.4-.5.6l-.4 1.3V3h-.1l-1.2.3c-.2 0-.5.2-.6.4-.1.3-.2.6-.1.8l.3 1.2v.2l-.9.9c-.2.2-.3.4-.3.7 0 .3.1.5.3.7l.9.9v.2l-.3 1.2c-.1.3 0 .5.1.8.1.2.4.4.6.5l1.2.3h.1v.1l.3 1.2c.1.3.2.5.5.6.2.1.5.2.8.1l1.2-.3h.2l.9.9c.2.2.4.3.7.3.3 0 .5-.1.7-.3l.9-.9h.2l1.2.3c.3.1.5 0 .8-.1.2-.1.4-.4.5-.6l.3-1.2v-.1h.1l1.2-.3c.3-.1.5-.2.6-.5.1-.2.2-.5.1-.8l-.3-1.2v-.2l.9-.9c.2-.2.3-.4.3-.7 0-.3-.1-.5-.3-.7l-.9-.9v-.2l.3-1.2c.1-.3 0-.5-.1-.8-.1-.2-.4-.4-.6-.5l-1.2-.3h-.1v-.1l-.3-1.2c-.1-.3-.2-.5-.5-.6-.2-.1-.5-.2-.8-.1l-1.3.3H9L8.2.3zm-1.8 10c.1 0 .2 0 .3-.1L10.9 6c.2-.2.2-.6 0-.8l-.3-.3c-.2-.2-.6-.2-.8 0L6.4 8.4 5.1 7.1c-.2-.2-.6-.2-.8 0l-.2.2c-.2.2-.2.6 0 .8l2 2.1c.1 0 .2.1.3.1z" style="fill-rule:evenodd;clip-rule:evenodd;fill:#4d76ff"/></svg>