<svg xmlns="http://www.w3.org/2000/svg" xml:space="preserve" style="enable-background:new 0 0 49 49" viewBox="0 0 49 49"><path d="M49 10.6V10.3c0-.1-.1-.2-.2-.2L38.9.3c-.1-.1-.2-.1-.2-.2H13.5c-2.3 0-4.1 1.8-4.1 4.1v6C3.7 12.6 0 18.1 0 24.3 0 30.4 3.7 36 9.3 38.4v6.5c0 2.3 1.9 4.1 4.1 4.1h31.4c2.3 0 4.1-1.8 4.1-4.1l.1-34.3zm-2.8-.8h-6.3c-.5 0-.8-.4-.8-.8V2.8l7.1 7zM1.7 24.3c0-3.7 1.5-7.2 4.1-9.8 2.6-2.6 6.2-4.1 9.9-4.1.5 0 .9 0 1.4.1 6.4.6 11.5 5.5 12.5 11.7.1.7.2 1.4.2 2.1 0 2.6-.7 5.2-2.2 7.4-1.1 1.8-2.6 3.3-4.4 4.4-4.3 2.7-9.8 2.8-14.3.4-4.5-2.5-7.2-7.2-7.2-12.2zm23.6 12.2.3-.3c.4-.3.8-.7 1.2-1 .4-.4.7-.8 1-1.2l.3-.3c.1-.1.2-.3.3-.4l7 7c.5.5.7 1.1.7 1.7 0 .6-.3 1.3-.7 1.7-1 .9-2.5.9-3.5 0l-7.1-7c.3 0 .4-.1.5-.2zm19.6 10.9H13.5c-1.4 0-2.5-1.1-2.5-2.5v-5.8h.2c.1 0 .3.1.4.1.3.1.6.2.9.2.2 0 .3.1.5.1.3.1.6.1 1 .1h.4c.5 0 .9.1 1.4.1 2.7 0 5.4-.7 7.8-2l7.3 7.2c1 1.1 2.6 1.6 4.1 1.2 1.5-.4 2.6-1.5 3-3 .4-1.5-.1-3-1.2-4L29.3 32c1.4-2.3 2.1-5 2.1-7.7 0-.5 0-1-.1-1.5-.4-3.6-2-6.9-4.5-9.4-2.9-2.9-6.9-4.6-11.1-4.5-.5 0-.9 0-1.4.1h-.4c-.3 0-.6.1-.9.1-.2 0-.3.1-.5.1-.3.1-.6.1-.9.2-.1 0-.3.1-.4.1H11V4.1c0-1.4 1.1-2.5 2.5-2.5h24V9c0 1.4 1.1 2.4 2.5 2.4h7.4v33.5c-.1 1.4-1.2 2.5-2.5 2.5z" style="fill:#ebab03"/><path d="M34.1 5.7c0-.5-.4-.8-.8-.8H15.1c-.5 0-.8.4-.8.8 0 .5.4.8.8.8h18.2c.5 0 .8-.3.8-.8zM43.2 19.6h-9.9c-.5 0-.8.4-.8.8s.4.8.8.8h9.9c.5 0 .8-.4.8-.8s-.3-.8-.8-.8zM43.2 24.5h-9.9c-.5 0-.8.4-.8.8s.4.8.8.8h9.9c.5 0 .8-.4.8-.8s-.3-.8-.8-.8zM44 30.2c0-.5-.4-.8-.8-.8H32.5c-.5 0-.8.4-.8.8s.3.8.8.8h10.7c.5 0 .8-.3.8-.8zM44 35.1c0-.5-.4-.8-.8-.8h-7.4c-.5 0-.8.4-.8.8s.4.8.8.8h7.4c.5 0 .8-.3.8-.8zM34.1 10.6c0-.5-.4-.8-.8-.8h-6.6c-.5 0-.8.4-.8.8s.4.8.8.8h6.6c.5 0 .8-.3.8-.8zM44 15.5c0-.5-.4-.8-.8-.8H30.8c-.5 0-.8.4-.8.8s.4.8.8.8h12.4c.5 0 .8-.3.8-.8zM21.6 35c2-1.1 3.7-2.7 4.8-4.6.1-.1.1-.2.2-.3 0-.1.1-.1.1-.2.1-.2.2-.5.4-.7.1-.2.2-.5.3-.7 0-.1.1-.1.1-.2 2.1-6-.8-12.7-6.8-15.2-5.9-2.6-12.8-.2-15.9 5.5-1 1.8-1.5 3.8-1.5 5.8 0 4.3 2.3 8.3 6 10.5 3.8 2.1 8.5 2.2 12.3.1zm-11-1.4c-.9-.5-1.7-1.1-2.4-1.8-.5-.5-1-1-1.3-1.6-.2-.3-.4-.6-.5-.9-2.5-4.6-1.2-10.4 3.1-13.5 4.3-3.1 10.2-2.7 14 1 3.3 3.3 4.1 8.4 1.9 12.5-1 1.8-2.5 3.3-4.3 4.3-3.5 1.7-7.3 1.7-10.5 0zM44.9 39.2c-.5 0-.8.4-.8.8v3.3c0 .5-.4.8-.8.8H40c-.5 0-.8.4-.8.8s.4.8.8.8h3.3c1.4 0 2.5-1.1 2.5-2.5V40c-.1-.4-.5-.8-.9-.8z" style="fill:#ebab03"/></svg>