<svg xmlns="http://www.w3.org/2000/svg" xml:space="preserve" style="enable-background:new 0 0 50 46" viewBox="0 0 50 46"><path d="M8.3 19.2h10.8c.5 0 .8-.4.8-.8 0-.5-.4-.8-.8-.8H8.3c-.5 0-.8.4-.8.8s.4.8.8.8zM30 22.6H8.3c-.5 0-.8.4-.8.8s.4.8.8.8H30c.5 0 .8-.4.8-.8s-.3-.8-.8-.8zM30 27.6H8.3c-.5 0-.8.4-.8.8s.4.8.8.8H30c.5 0 .8-.4.8-.8s-.3-.8-.8-.8z" style="fill:#ebab03"/><path d="M45.1.1 16.6 0c-2.7 0-4.9 2.2-4.9 5v4.3H5c-2.7 0-4.9 2.2-4.9 5V32c0 2.7 2.2 5 4.9 5h5v8.4c0 .3.2.7.5.8.1 0 .2.1.3.1.2 0 .5-.1.6-.3l8.1-8.9 13.9-.1c2.7 0 4.9-2.2 4.9-5v-.1l4.4 4.8c.2.2.4.3.6.3.1 0 .2 0 .3-.1.3-.1.5-.4.5-.8v-8.4h.9c2.7 0 4.9-2.2 4.9-5V5C50 2.3 47.8.1 45.1.1zm-8.4 31.7c0 1.8-1.5 3.3-3.3 3.3l-14.2.1c-.2 0-.5.1-.6.3L11.7 43v-7c0-.5-.4-.8-.8-.8h-6c-1.8 0-3.3-1.5-3.3-3.3V14.2c0-1.8 1.5-3.3 3.3-3.3h28.5c1.8 0 3.3 1.5 3.3 3.3v17.6zm11.6-9.1c0 1.8-1.5 3.3-3.3 3.3h-1.7c-.5 0-.8.4-.8.8v7l-4.2-4.6V14.1c0-2.7-2.2-5-4.9-5H13.3V5c0-1.8 1.5-3.3 3.3-3.3l28.5.1c1.8 0 3.3 1.5 3.3 3.3l-.1 17.6z" style="fill:#ebab03"/></svg>