<?xml version="1.0" encoding="utf-8"?>
<!-- Generator: Adobe Illustrator 24.0.3, SVG Export Plug-In . SVG Version: 6.00 Build 0)  -->
<svg version="1.1" id="Слой_1" xmlns="http://www.w3.org/2000/svg" xmlns:xlink="http://www.w3.org/1999/xlink" x="0px" y="0px"
	 viewBox="0 0 50 50" style="enable-background:new 0 0 50 50;" xml:space="preserve">
<path style="fill:#EBAB03;" d="M45.1,38.9c1-1.4,1.5-3,1.5-4.7c0-0.2-0.1-0.4-0.2-0.6c-0.1-0.2-0.4-0.3-0.6-0.3
	c-0.5,0-0.8,0.3-0.9,0.8c0,1.3-0.4,2.6-1.2,3.7c-1.6,2.1-4.7,2.2-5.3,2.2c-0.5,0-0.8,0.4-0.8,0.8c0,0.5,0.4,0.8,0.8,0.8
	C39.2,41.7,43,41.5,45.1,38.9z"/>
<path style="fill:#EBAB03;" d="M28.3,28.3c0-0.5-0.4-0.8-0.8-0.8c-0.5,0-0.8,0.4-0.8,0.8c0,1.8,1.5,3.3,3.3,3.3v0.8
	c0,0.5,0.4,0.8,0.8,0.8c0.5,0,0.8-0.4,0.8-0.8v-0.8c1.8,0,3.3-1.5,3.3-3.3c0-1.8-1.5-3.3-3.3-3.3v-3.3c0.9,0,1.7,0.7,1.7,1.7
	c0,0.5,0.4,0.8,0.8,0.8c0.5,0,0.8-0.4,0.8-0.8c0-1.8-1.5-3.3-3.3-3.3v-0.8c0-0.5-0.4-0.8-0.8-0.8c-0.5,0-0.8,0.4-0.8,0.8V20
	c-1.8,0-3.3,1.5-3.3,3.3c0,1.8,1.5,3.3,3.3,3.3V30C29.1,30,28.3,29.3,28.3,28.3z M28.3,23.3c0-0.9,0.7-1.7,1.7-1.7V25
	C29.1,25,28.3,24.3,28.3,23.3z M31.7,26.7c0.9,0,1.7,0.7,1.7,1.7c0,0.9-0.7,1.7-1.7,1.7V26.7z"/>
<path style="fill:#EBAB03;" d="M49.3,28.1c-2.1-8.7-6.6-13.8-9.9-16.4c4.1,0.3,5.5,2,5.5,2.1c0.3,0.4,0.8,0.5,1.1,0.2
	c0.4-0.3,0.5-0.8,0.2-1.1c-0.1-0.1-1.2-1.7-4.6-2.5c0.9-0.7,1.4-1.8,1.4-2.9c-0.1-1.8-1.4-3.4-3.2-3.9C40,3,40,2.4,40,1.8
	c0-0.6-0.3-1.1-0.7-1.4c-0.5-0.3-1.1-0.4-1.6-0.1c-0.4,0.2-0.8,0.4-1.2,0.7c-0.4,0.4-1,0.7-1.6,0.6c-0.6,0-1.1-0.2-1.6-0.6
	c-1.5-1.4-3.7-1.4-5.2,0c-0.4,0.4-1,0.7-1.6,0.6c-0.6,0-1.1-0.2-1.6-0.6c-0.3-0.3-0.7-0.6-1.2-0.7c-0.5-0.2-1.1-0.2-1.6,0.1
	c-0.5,0.3-0.7,0.8-0.7,1.4c0,2.1,0.4,5.8,3,8.3c-1.4,0.8-2.6,1.8-3.8,2.9V6.7c0-1.9-2.7-3.3-6.3-3.3S8.3,4.8,8.3,6.7v8.4
	c-2.9,0.3-5,1.6-5,3.3v21.2c-2,0.5-3.3,1.6-3.3,3v4.2C0,48.6,2.7,50,6.3,50c3.2,0,5.7-1.1,6.2-2.8c1.4,0.8,3.1,1.1,4.7,1.1
	c3.6,0,6.3-1.4,6.3-3.3V34.2c0-1.9-2.7-3.3-6.3-3.3c-0.4,0-0.8,0-1.3,0.1V18.3c0-1.8-2.5-3.2-5.8-3.3V9c1.4,0.7,3,1.1,4.6,1
	c1.6,0,3.2-0.3,4.6-1v5.7c-0.5,0.6-1.1,1.3-1.6,2c-0.2,0.4-0.2,0.9,0.2,1.1c0.4,0.3,0.9,0.2,1.1-0.2c0.5-0.7,1.1-1.4,1.7-2.1
	c0,0,0,0,0,0c1.6-1.8,3.5-3.3,5.5-4.4c0.4,0.2,0.8,0.3,1.3,0.4l-2.1,2c-0.3,0.3-0.4,0.8,0,1.2c0.3,0.3,0.8,0.4,1.2,0l3.3-3.1H30v2.5
	c0,0.5,0.4,0.8,0.8,0.8c0.5,0,0.8-0.4,0.8-0.8v-2.5h0.3l3.3,3.1c0.2,0.2,0.5,0.3,0.8,0.2c0.3-0.1,0.5-0.3,0.6-0.6
	c0.1-0.3,0-0.6-0.2-0.8l-2.2-2c0.4-0.1,0.9-0.2,1.3-0.4c2.2,1.2,9.4,5.9,12.2,17.4c1.2,5,0.8,8.8-1.3,11.4c-2.6,3.3-7.1,3.4-7.9,3.4
	H26.7c-0.5,0-0.8,0.4-0.8,0.8c0,0.5,0.4,0.8,0.8,0.8h11.8c1.4,0,6.3-0.3,9.2-4.1C50.1,38,50.6,33.7,49.3,28.1z M6.3,40.8
	c2.8,0,4.6,1,4.6,1.7c0,0.7-1.8,1.7-4.6,1.7c-2.8,0-4.6-1-4.6-1.7C1.7,41.8,3.5,40.8,6.3,40.8z M6.3,48.3c-2.8,0-4.6-1-4.6-1.7v-1.9
	c1.4,0.7,3,1.1,4.6,1c1.6,0,3.2-0.3,4.6-1v1.9C10.8,47.3,9,48.3,6.3,48.3z M17.1,46.7c-2.8,0-4.6-1-4.6-1.7v-8.5
	c1.4,0.7,3,1.1,4.6,1c1.6,0,3.2-0.3,4.6-1V45C21.7,45.7,19.8,46.7,17.1,46.7z M21.7,34.2c0,0.7-1.8,1.7-4.6,1.7s-4.6-1-4.6-1.7
	c0-0.7,1.8-1.7,4.6-1.7S21.7,33.5,21.7,34.2z M10.8,34.2v6c-1.4-0.7-3-1.1-4.6-1c-0.4,0-0.8,0-1.3,0.1V20.6c1.4,0.7,3,1.1,4.6,1
	c1.6,0,3.2-0.3,4.6-1v10.6C12.2,31.7,10.8,32.8,10.8,34.2z M14.2,18.3c0,0.7-1.8,1.7-4.6,1.7C6.8,20,5,19,5,18.3
	c0-0.7,1.8-1.7,4.6-1.7C12.3,16.7,14.2,17.7,14.2,18.3z M14.6,8.3c-2.8,0-4.6-1-4.6-1.7C10,6,11.8,5,14.6,5c2.8,0,4.6,1,4.6,1.7
	C19.2,7.3,17.3,8.3,14.6,8.3z M41.4,7.5c0,1.4-1.5,2.5-3.3,2.5c-0.3,0-0.6,0-0.9-0.1c1.2-1.3,2.1-2.9,2.4-4.6
	C40.6,5.6,41.3,6.5,41.4,7.5z M24.1,2.3c0.7,0.7,1.6,1,2.6,1c1,0,1.9-0.4,2.6-1c0.4-0.4,1-0.6,1.6-0.6c0.6,0,1.1,0.2,1.6,0.6
	c0.7,0.7,1.6,1,2.6,1c1,0,1.9-0.4,2.6-1c0.2-0.2,0.5-0.4,0.8-0.5c0,1.5-0.3,5.4-3,7.5C34.8,9.7,34,10,33.3,10
	C34,8.8,34.6,7.4,35,6.1c0.1-0.3,0-0.6-0.2-0.8C34.6,5,34.3,5,34,5c-0.3,0.1-0.5,0.3-0.6,0.6c-0.5,1.6-1.2,3-2.1,4.4h-0.9
	c-0.9-1.3-1.6-2.8-2.1-4.4c-0.1-0.4-0.6-0.7-1-0.6c-0.4,0.1-0.7,0.6-0.6,1c0.4,1.4,1,2.7,1.7,3.9c-0.8,0-1.5-0.3-2.1-0.7
	c-2.7-2.1-3-5.9-3-7.5C23.6,1.9,23.8,2.1,24.1,2.3z"/>
<path style="fill:#EBAB03;" d="M45.1,38.9c1-1.4,1.5-3,1.5-4.7c0-0.2-0.1-0.4-0.2-0.6c-0.1-0.2-0.4-0.3-0.6-0.3
	c-0.5,0-0.8,0.3-0.9,0.8c0,1.3-0.4,2.6-1.2,3.7c-1.6,2.1-4.7,2.2-5.3,2.2c-0.5,0-0.8,0.4-0.8,0.8c0,0.5,0.4,0.8,0.8,0.8
	C39.2,41.7,43,41.5,45.1,38.9z"/>
</svg>
