<svg xmlns="http://www.w3.org/2000/svg" xml:space="preserve" style="enable-background:new 0 0 50 50" viewBox="0 0 50 50"><path d="M43.5 29h-1.6v1.6h1.6V29zM43.5 35.5h-1.6v1.6h1.6v-1.6zM43.5 41.9h-1.6v1.6h1.6v-1.6z" style="fill:#ebab03"/><path d="M48.4 22.6h-3.6c-.4-1.9-1.3-3.6-2.6-5.1-.6-.7-1.3-1.2-2-1.6 1.5-1 2.4-2.7 2.4-4.6v-.8h-4c-2.1 0-3.9 1.1-4.8 2.8v-1.9c0-1.8 1.4-3.2 3.2-3.2V6.5c-2.7 0-4.8 2.2-4.8 4.8v4.5c-2.4-.9-5.1-.2-6.8 1.7-.2.2-.4.5-.6.7l.1-.3c.1-.5.2-1.1.2-1.7 0-2.3-.9-4.3-2.5-5.8l2.8-4.2c.1-.1.1-.2.2-.3.6-1.2.1-2.7-1.1-3.3l-.2-.1c-.6-.3-1.3-.3-1.9-.1-.6.2-1.1.7-1.5 1.3 0 .1-.1.2-.1.3l-1.6 4.5c-.1 0-.2-.1-.3-.1l.6-5.7v-.2C19.4 1.1 18.3 0 17 0h-.2c-1.3 0-2.3 1.1-2.3 2.3v.2l.6 5.7c-.1 0-.2.1-.3.1l-1.6-4.5c0-.1-.1-.2-.1-.3-.3-.6-.8-1-1.4-1.3-.6-.2-1.3-.2-1.9.1l-.4.3c-1.2.6-1.7 2.1-1.1 3.3 0 .1.1.2.2.3l2.8 4.2c-1.5 1.5-2.5 3.5-2.5 5.8 0 .6.1 1.1.2 1.6l1 4.7H8.9c-.9 0-1.6.7-1.6 1.6v.1c-.3 0-.5-.1-.8-.1h-4v.9c0 1.9 1 3.6 2.4 4.6-.7.4-1.4.9-2 1.6C1 33.3 0 35.9 0 38.7c0 3.1 1.2 6 3.5 8.1 2.1 2 4.9 3.2 7.8 3.2h.5c2.9-.1 5.5-1.3 7.4-3.2h23.6c2.2 0 4-1.8 4-4V27.4h1.6c.9 0 1.6-.7 1.6-1.6v-1.6c0-.9-.7-1.6-1.6-1.6zm-9.8-10.5h2.3c-.4 1.8-2 3.2-4 3.2h-2.3c.4-1.8 2-3.2 4-3.2zm-12.1 6.4c1.3-1.5 3.5-1.9 5.3-1.2.1 0 .2.1.3.1v1.7c-.8-.3-1.6-.9-1.9-1.2L29.1 19c.2.2 1.9 1.8 3.8 1.8s3.6-1.7 3.8-1.8l-1.1-1c-.3.3-1 .9-1.8 1.2v-2.3H37c.3 0 .5 0 .8-.1 1.1.1 2.3.7 3.2 1.7 1 1.2 1.8 2.5 2.1 4H24.4c.4-1.4 1.1-2.8 2.1-4zM22.3 4.4v-.1c.1-.2.3-.4.5-.4.2-.1.5-.1.7 0l.2.1c.4.2.6.7.4 1.2 0 0 0 .1-.1.1l-2.8 4.1c-.2-.1-.4-.3-.7-.4l1.8-4.6zm-6.2-2.1c0-.4.3-.7.7-.7h.2c.4 0 .7.3.7.8l-.6 5.7h-.4l-.6-5.8zm-6.3 3s0-.1-.1-.1c-.2-.4 0-1 .4-1.2l.2-.1c.2-.1.5-.1.7 0 .2.1.4.2.5.5v.1L13.3 9c-.2.1-.5.2-.7.4L9.8 5.3zm7.1 4.4c3.6 0 6.5 2.9 6.5 6.5 0 .4 0 .9-.1 1.3l-1.1 5.1h-9c.6-.5 1.3-.8 2.1-.8v-1.6c-1.5 0-2.9.7-3.8 1.8l-.9-4.5c-.1-.4-.1-.9-.1-1.4 0-3.5 2.9-6.4 6.4-6.4zm-8 14.5h1.7c0 .3-.1.5-.1.8v.9c-.5-.5-1-.9-1.6-1.1v-.6zm-2.4 1.6c1.9 0 3.6 1.4 4 3.2H8.1c-1.9 0-3.6-1.4-4-3.2h2.4zm5.2 22.6c-2.7.1-5.2-.9-7.1-2.7-1.9-1.8-3-4.3-3-7 0-2.4.9-4.7 2.4-6.4.9-1 2.1-1.6 3.2-1.7.3 0 .5.1.8.1h2.4V33c-.8-.3-1.6-.9-1.9-1.2l-1.1 1.1c.2.2 1.9 1.8 3.8 1.8s3.6-1.7 3.8-1.8l-1.1-1.1c-.3.3-1 .9-1.9 1.2v-1.5c.4-.1.8-.2 1.1-.3 1.8-.8 4-.3 5.3 1.2 1.7 1.9 2.6 4.3 2.5 6.9-.2 4.8-4.2 8.9-9.2 9.1zm10.9-9.7c0-1.7-.4-3.3-1.1-4.8h23.7v4.8H22.6zm20.1 6.5H20.5c1-1.4 1.7-3.1 1.9-4.8h22.7v2.4c.1 1.3-1 2.4-2.4 2.4zm5.7-19.4h-3.2v6.5H20.5c-.3-.4-.5-.7-.9-1.1-1.8-2-4.7-2.6-7.1-1.6-.1.1-.3.1-.5.1v-2.3h31.5v-1.6H12.1V25c0-.3 0-.5.1-.8h36.2v1.6z" style="fill:#ebab03"/><path d="M4.8 38.7H3.2c0 4.4 3.6 8.1 8.1 8.1v-1.6c-3.6 0-6.5-2.9-6.5-6.5zM21 12.9h-1.6v1.6H21v-1.6zM21 16.1h-1.6v1.6H21v-1.6zM21 19.4h-1.6V21H21v-1.6z" style="fill:#ebab03"/></svg>