<svg xmlns="http://www.w3.org/2000/svg" xml:space="preserve" style="enable-background:new 0 0 44.2 50" viewBox="0 0 44.2 50"><path d="M26.4 3.8h-8.6v3.1h8.6V3.8z" style="fill:#ff9102"/><linearGradient id="a" x1="26.485" x2="19.718" y1="43.477" y2="50.243" gradientTransform="matrix(1 0 0 -1 0 52)" gradientUnits="userSpaceOnUse"><stop offset="0" style="stop-color:#ffc200;stop-opacity:0"/><stop offset=".161" style="stop-color:#fdbb00;stop-opacity:.161"/><stop offset=".397" style="stop-color:#f7a700;stop-opacity:.397"/><stop offset=".678" style="stop-color:#ee8700;stop-opacity:.678"/><stop offset=".992" style="stop-color:#e05b00;stop-opacity:.992"/><stop offset="1" style="stop-color:#e05a00"/></linearGradient><path d="m17.8 4.5 2.4 2.4h6.1V3.8h-8.6v.7z" style="fill:url(#a)"/><linearGradient id="b" x1="39.789" x2="35.712" y1="42.638" y2="38.559" gradientTransform="matrix(1 0 0 -1 0 52)" gradientUnits="userSpaceOnUse"><stop offset="0" style="stop-color:#c2cece"/><stop offset="1" style="stop-color:#97aaaa"/></linearGradient><path d="m36.9 13.7-1.5-1.5c-.5-.5-.5-1.4 0-1.9l1.5-1.5c.5-.5 1.4-.5 1.9 0l1.5 1.5c.5.5.5 1.4 0 1.9l-1.5 1.5c-.5.5-1.3.5-1.9 0z" style="fill:url(#b)"/><linearGradient id="c" x1="8.25" x2="4.172" y1="42.638" y2="38.559" gradientTransform="matrix(1 0 0 -1 0 52)" gradientUnits="userSpaceOnUse"><stop offset="0" style="stop-color:#c2cece"/><stop offset="1" style="stop-color:#97aaaa"/></linearGradient><path d="m3.9 12.2 1.5 1.5c.5.5 1.4.5 1.9 0l1.5-1.5c.5-.5.5-1.4 0-1.9L7.3 8.8c-.5-.5-1.4-.5-1.9 0l-1.5 1.5c-.5.6-.5 1.4 0 1.9z" style="fill:url(#c)"/><linearGradient id="d" x1="22.108" x2="22.108" y1="55.968" y2="-.09" gradientTransform="matrix(1 0 0 -1 0 52)" gradientUnits="userSpaceOnUse"><stop offset="0" style="stop-color:#ffcf95"/><stop offset=".427" style="stop-color:#ffc954"/><stop offset="1" style="stop-color:#ffc200"/></linearGradient><path d="M22.1 50c12.2 0 22.1-9.9 22.1-22.1 0-12.2-9.9-22.1-22.1-22.1S0 15.7 0 27.9C0 40.1 9.9 50 22.1 50z" style="fill:url(#d)"/><linearGradient id="e" x1="11.277" x2="31.884" y1="34.938" y2="14.331" gradientTransform="matrix(1 0 0 -1 0 52)" gradientUnits="userSpaceOnUse"><stop offset="0" style="stop-color:#fff"/><stop offset="1" style="stop-color:#e8efee"/></linearGradient><path d="M22.1 47.8c11 0 19.9-8.9 19.9-19.9S33.1 8 22.1 8c-11 0-19.9 8.9-19.9 19.9s8.9 19.9 19.9 19.9z" style="fill:url(#e)"/><radialGradient id="f" cx="-454.78" cy="503.982" r="1" gradientTransform="matrix(21.5278 0 0 -21.5278 9813.056 10878.115)" gradientUnits="userSpaceOnUse"><stop offset="0" style="stop-color:#fff;stop-opacity:0"/><stop offset=".482" style="stop-color:#fdfdfd;stop-opacity:.482"/><stop offset=".656" style="stop-color:#f6f7f7;stop-opacity:.655"/><stop offset=".779" style="stop-color:#ebedec;stop-opacity:.779"/><stop offset=".879" style="stop-color:#dadddd;stop-opacity:.879"/><stop offset=".964" style="stop-color:#c4cac9;stop-opacity:.964"/><stop offset="1" style="stop-color:#b8bfbe"/></radialGradient><path d="M22.1 47.8c11 0 19.9-8.9 19.9-19.9S33.1 8 22.1 8c-11 0-19.9 8.9-19.9 19.9s8.9 19.9 19.9 19.9z" style="fill:url(#f)"/><radialGradient id="g" cx="-418.659" cy="468.013" r="1" gradientTransform="matrix(8.1742 0 0 -8.1742 3444.312 3853.544)" gradientUnits="userSpaceOnUse"><stop offset="0" style="stop-color:#fff;stop-opacity:0"/><stop offset=".22" style="stop-color:#fafbfb;stop-opacity:.219"/><stop offset=".474" style="stop-color:#eceeee;stop-opacity:.473"/><stop offset=".744" style="stop-color:#d5d9d9;stop-opacity:.744"/><stop offset="1" style="stop-color:#b8bfbe"/></radialGradient><path d="M22.1 34.3c3.6 0 6.4-2.9 6.4-6.4s-2.9-6.4-6.4-6.4c-3.6 0-6.4 2.9-6.4 6.4s2.8 6.4 6.4 6.4z" style="fill:url(#g)"/><linearGradient id="h" x1="32.28" x2="2.102" y1="21.47" y2="27.447" gradientTransform="matrix(1 0 0 -1 0 52)" gradientUnits="userSpaceOnUse"><stop offset="0" style="stop-color:#c2cece;stop-opacity:0"/><stop offset=".179" style="stop-color:#afbcbc;stop-opacity:.179"/><stop offset="1" style="stop-color:#5b6a6a"/></linearGradient><path d="M22.2 16.1h-.1c-.1 0-.3.1-.3.3l-1.4 10.3c-.3.3-.4.7-.4 1.2 0 .7.3 1.3.9 1.7.1.2.3.3.4.4l13.4 13.4c2.8-2.3 5-5.2 6.2-8.7L22.2 16.1z" style="fill:url(#h)"/><linearGradient id="i" x1="39.22" x2="-3.462" y1="37.487" y2="19.355" gradientTransform="matrix(1 0 0 -1 0 52)" gradientUnits="userSpaceOnUse"><stop offset="0" style="stop-color:#c2cece"/><stop offset="1" style="stop-color:#97aaaa"/></linearGradient><path d="m21.8 16.4-1.4 10.4H24l-1.4-10.4c-.2-.4-.8-.4-.8 0z" style="fill:url(#i)"/><linearGradient id="j" x1="29.096" x2="26.309" y1="39.505" y2="35.427" gradientTransform="matrix(1 0 0 -1 0 52)" gradientUnits="userSpaceOnUse"><stop offset="0" style="stop-color:#c2cece"/><stop offset="1" style="stop-color:#97aaaa"/></linearGradient><path d="m23.9 26.7-1.4-10.4c0-.2-.2-.3-.3-.3v10.6h1.7z" style="fill:url(#j)"/><linearGradient id="k" x1="22.11" x2="22.11" y1="26.251" y2="18.965" gradientTransform="matrix(1 0 0 -1 0 52)" gradientUnits="userSpaceOnUse"><stop offset="0" style="stop-color:#5b6a6a"/><stop offset="1" style="stop-color:#303033"/></linearGradient><path d="M22.1 30c1.2 0 2.2-1 2.2-2.2s-1-2.2-2.2-2.2-2.2 1-2.2 2.2 1 2.2 2.2 2.2z" style="fill:url(#k)"/><path d="M22.2 9.6H22c-.6 0-1 .5-1 1v1.3c0 .6.5 1 1 1h.1c.6 0 1-.5 1-1v-1.3c.1-.6-.3-1-.9-1zM22.2 42.8H22c-.6 0-1 .5-1 1v1.3c0 .6.5 1 1 1h.1c.6 0 1-.5 1-1v-1.3c.1-.5-.3-1-.9-1zM39.4 26.8h-1.3c-.6 0-1 .5-1 1v.2c0 .6.5 1 1 1h1.3c.6 0 1-.5 1-1v-.1c0-.7-.5-1.1-1-1.1zM7.2 28v-.1c0-.6-.5-1-1-1H4.8c-.6 0-1 .5-1 1v.1c0 .6.5 1 1 1h1.3c.6 0 1.1-.5 1.1-1zM7.6 21.4l-2.1-.8c-.2-.1-.4 0-.4.2-.1.2 0 .4.2.4l2 .8c.2.1.4 0 .4-.2.2-.1.1-.3-.1-.4zM38.9 34.5l-2.1-.8c-.2-.1-.4 0-.4.2-.1.2 0 .4.2.4l2.1.8c.2.1.4 0 .4-.2.1-.1 0-.3-.2-.4zM29.2 10.9c-.2-.1-.4 0-.4.2l-.8 2.1c-.1.2 0 .4.2.4.2.1.4 0 .4-.2l.8-2.1c0-.2 0-.4-.2-.4zM16.1 42.2c-.2-.1-.4 0-.4.2l-.8 2.1c-.1.2 0 .4.2.4.2.1.4 0 .4-.2l.8-2.1c0-.1-.1-.3-.2-.4zM11.1 38.8c-.1-.1-.4-.1-.5 0l-1.5 1.6c-.1.1-.1.4 0 .5.1.1.4.1.5 0l1.5-1.6c.1-.1.1-.3 0-.5zM35.1 14.9c-.1-.1-.4-.1-.5 0l-1.5 1.6c-.1.1-.1.4 0 .5.1.1.4.1.5 0l1.5-1.6c.2-.2.2-.4 0-.5zM9.6 14.9c-.1-.1-.4-.1-.5 0-.1.1-.1.4 0 .5l1.6 1.5c.1.1.3.1.5 0 .1-.1.1-.4 0-.5l-1.6-1.5zM33.5 38.9c-.1-.1-.4-.1-.5 0-.1.1-.1.4 0 .5l1.6 1.5c.1.1.3.1.5 0 .1-.1.1-.4 0-.5l-1.6-1.5zM7.7 33.7c-.1-.2-.3-.2-.5-.2l-2 .9c-.2.1-.2.3-.2.5.1.2.3.2.5.2l2-.9c.2-.1.3-.3.2-.5zM37 22.2l2-.9c.2-.1.2-.3.2-.4-.1-.2-.3-.2-.5-.2l-2 .9c-.2.1-.2.3-.2.5.1.1.3.2.5.1zM15.5 11c-.1-.2-.3-.2-.5-.2-.2.1-.2.3-.2.5l.9 2c.1.2.3.2.4.2.2-.1.2-.3.2-.5l-.8-2zM28.4 42.5c-.1-.2-.3-.2-.5-.2-.2.1-.2.3-.2.5l.9 2c.1.2.3.2.4.2.2-.1.2-.3.2-.5l-.8-2z" style="fill:#5b6a6a"/><linearGradient id="l" x1="22.108" x2="22.108" y1="52.298" y2="46.797" gradientTransform="matrix(1 0 0 -1 0 52)" gradientUnits="userSpaceOnUse"><stop offset="0" style="stop-color:#ffc200"/><stop offset=".268" style="stop-color:#fb0"/><stop offset=".659" style="stop-color:#ffa801"/><stop offset="1" style="stop-color:#ff9102"/></linearGradient><path d="M25.8 4.6h-7.3c-1.2 0-2.1-.9-2.1-2.1v-.4c0-1.2.9-2.1 2.1-2.1h7.3c1.2 0 2.1.9 2.1 2.1v.4c0 1.1-1 2.1-2.1 2.1z" style="fill:url(#l)"/><linearGradient id="m" x1="22.108" x2="22.108" y1="44.897" y2="56.336" gradientTransform="matrix(1 0 0 -1 0 52)" gradientUnits="userSpaceOnUse"><stop offset="0" style="stop-color:#ffc200"/><stop offset=".268" style="stop-color:#fb0"/><stop offset=".659" style="stop-color:#ffa801"/><stop offset="1" style="stop-color:#ff9102"/></linearGradient><path d="M24.4 4.6h-4.6c-1 0-1.8-.8-1.8-1.8v-1c0-1 .8-1.8 1.8-1.8h4.6c1 0 1.8.8 1.8 1.8v1c0 1-.8 1.8-1.8 1.8z" style="fill:url(#m)"/><linearGradient id="n" x1="22.108" x2="22.108" y1="52.298" y2="46.797" gradientTransform="matrix(1 0 0 -1 0 52)" gradientUnits="userSpaceOnUse"><stop offset="0" style="stop-color:#ffc200"/><stop offset=".268" style="stop-color:#fb0"/><stop offset=".659" style="stop-color:#ffa801"/><stop offset="1" style="stop-color:#ff9102"/></linearGradient><path d="M22.7 4.6h-1.2c-.6 0-1.2-.5-1.2-1.2V1.2c0-.6.5-1.2 1.2-1.2h1.2c.6 0 1.2.5 1.2 1.2v2.2c0 .6-.5 1.2-1.2 1.2z" style="fill:url(#n)"/></svg>