<svg xmlns="http://www.w3.org/2000/svg" xml:space="preserve" style="enable-background:new 0 0 12 15" viewBox="0 0 12 15"><path d="M5.9 7.2c1 0 1.8-.4 2.4-1.1.7-.7 1-1.6 1-2.6S9 1.6 8.3.9C7.7.4 6.9 0 5.9 0 5 0 4.1.4 3.5 1.1c-.7.7-1 1.6-1 2.6s.3 1.9 1 2.6c.6.6 1.5.9 2.4.9z" style="fill:#fff"/><path d="M12 11.5c0-.3-.1-.6-.1-.9-.1-.3-.1-.7-.2-1-.1-.3-.2-.6-.4-.9-.2-.3-.4-.6-.6-.8-.2-.2-.5-.4-.8-.5-.3-.1-.7-.2-1-.2-.1 0-.3.1-.6.2-.2.2-.4.3-.6.5-.2.1-.5.2-.8.3-.3.1-.6.2-.9.2s-.6-.1-.9-.2c-.3-.1-.6-.2-.8-.3-.2-.2-.4-.3-.6-.4-.2-.2-.4-.3-.5-.3-.4 0-.7.1-1 .2-.4.2-.7.4-.9.6-.2.2-.4.4-.6.7l-.3.9c-.1.3-.2.6-.2 1-.1.3-.2.6-.2.9v.9c0 .8.2 1.4.7 1.9.5.5 1.1.7 1.8.7h6.9c.7 0 1.4-.2 1.8-.7.5-.5.7-1.1.7-1.9.1-.3.1-.6.1-.9z" style="fill:#fff"/></svg>