<svg xmlns="http://www.w3.org/2000/svg" xml:space="preserve" style="enable-background:new 0 0 15 15" viewBox="0 0 15 15"><path d="M15 2v2.1H0V2c0-.4.2-.8.5-1S1.2.6 1.6.6h1.1v1c0 .4.2.8.5 1.1.3.3.7.5 1.1.5.4 0 .8-.2 1.1-.5.3-.3.5-.7.5-1.1v-1h3.2v1c0 .4.2.8.5 1.1.3.3.7.5 1.1.5.4 0 .8-.2 1.1-.5.3-.3.5-.7.5-1.1v-1h1.1c.4 0 .8.2 1.1.4.3.2.5.6.5 1zM0 5.2v8.3c0 .4.2.8.5 1.1.3.2.7.4 1.1.4h11.8c.4 0 .8-.2 1.1-.4.3-.3.5-.7.5-1.1V5.2H0zm4.8 7.2c0 .1-.1.3-.2.4s-.2.2-.4.2h-1c-.1 0-.3-.1-.4-.2-.1-.1-.2-.2-.2-.4v-1c0-.1.1-.3.2-.4.1-.1.2-.2.4-.2h1.1c.1 0 .3.1.4.2.1.1.2.2.2.4v1zm0-3.6c0 .1-.1.3-.2.4 0 .1-.2.1-.3.1H3.2c-.1 0-.3-.1-.4-.2-.1 0-.1-.2-.1-.3v-1c0-.1.1-.3.2-.4.1-.1.2-.2.4-.2h1.1c.1 0 .3.1.4.2.1.1.2.2.2.4v1zm3.8 3.6c0 .1-.1.3-.2.4s-.2.1-.4.1H7c-.1 0-.3-.1-.4-.2s-.2-.2-.2-.4v-1c0-.1.1-.3.2-.4.1-.1.2-.2.4-.2h1c.1 0 .3.1.4.2.1.1.2.2.2.4v1.1zm0-3.6c0 .1-.1.3-.2.4-.1.1-.2.1-.4.1H7c-.1 0-.3-.1-.4-.2-.1 0-.2-.2-.2-.3v-1c0-.1.1-.3.2-.4.1-.1.2-.2.4-.2h1c.1 0 .3.1.4.2.1.1.2.2.2.4v1zm3.7 0c0 .1-.1.3-.2.4-.1.1-.2.2-.4.2h-1.1c-.1 0-.3-.1-.4-.2-.1-.1-.2-.2-.2-.4v-1c0-.1.1-.3.2-.4.1-.1.2-.2.4-.2h1.1c.1 0 .3.1.4.2.1.1.2.2.2.4v1z" style="fill:#4d76ff"/><path d="M4.8.5v1c0 .1-.1.3-.2.4 0 .1-.2.2-.3.2-.2 0-.3-.1-.4-.2-.1-.1-.1-.2-.1-.3v-1c0-.1.1-.3.2-.4 0-.1.1-.2.3-.2.1 0 .3.1.4.2.1 0 .1.2.1.3zM11.2.5v1c0 .1-.1.3-.2.4 0 .1-.1.2-.3.2-.1 0-.3-.1-.4-.2-.1-.1-.2-.2-.2-.4v-1c0-.1.1-.3.2-.4.1 0 .3-.1.4-.1.1 0 .3.1.4.2.1 0 .1.2.1.3z" style="fill:#4d76ff"/></svg>