<svg width="13" height="13" viewBox="0 0 13 13" fill="none" xmlns="http://www.w3.org/2000/svg">
<g clip-path="url(#clip0_730_7263)">
<path d="M0.860466 12.7501C0.739733 12.7501 0.621706 12.7143 0.521313 12.6473C0.42092 12.5802 0.342672 12.4849 0.296467 12.3733C0.250261 12.2618 0.238174 12.139 0.261734 12.0206C0.285294 11.9022 0.343443 11.7934 0.428825 11.7081L11.7081 0.428791C11.8226 0.314313 11.9779 0.25 12.1398 0.25C12.3017 0.25 12.4569 0.314313 12.5714 0.428791C12.6859 0.54327 12.7502 0.698535 12.7502 0.860432C12.7502 1.02233 12.6859 1.17759 12.5714 1.29207L1.29211 12.5714C1.23547 12.6281 1.16819 12.6731 1.09412 12.7038C1.02004 12.7345 0.940638 12.7502 0.860466 12.7501Z" fill="white"/>
<path d="M12.1399 12.7501C12.0597 12.7502 11.9803 12.7345 11.9063 12.7038C11.8322 12.6731 11.7649 12.6281 11.7083 12.5714L0.428977 1.29207C0.314498 1.17759 0.250185 1.02233 0.250185 0.860432C0.250185 0.698535 0.314498 0.54327 0.428977 0.428791C0.543455 0.314313 0.698721 0.25 0.860617 0.25C1.02251 0.25 1.17778 0.314313 1.29226 0.428791L12.5716 11.7081C12.6569 11.7934 12.7151 11.9022 12.7386 12.0206C12.7622 12.139 12.7501 12.2618 12.7039 12.3733C12.6577 12.4849 12.5795 12.5802 12.4791 12.6473C12.3787 12.7143 12.2606 12.7501 12.1399 12.7501Z" fill="white"/>
</g>
<defs>
<clipPath id="clip0_730_7263">
<rect width="12.5" height="12.5" fill="white" transform="translate(0.25 0.25)"/>
</clipPath>
</defs>
</svg>
