<svg xmlns="http://www.w3.org/2000/svg" xml:space="preserve" style="enable-background:new 0 0 15 15" viewBox="0 0 15 15"><path d="M15 12.7c0 .1 0 .2-.1.3 0 .1-.1.2-.2.2-.1.1-.2.1-.2.2-.1 0-.2.1-.3.1H7.4c-.2.4-.4.8-.8 1.1-.4.3-.9.4-1.3.4-.5 0-.9-.1-1.3-.4-.4-.3-.7-.6-.8-1.1H.8c-.2 0-.4-.1-.5-.2-.2-.2-.3-.4-.3-.6 0-.2.1-.4.2-.5.2-.1.4-.2.6-.2h2.4c.2-.4.4-.8.8-1.1.4-.3.8-.4 1.3-.4s.9.1 1.3.4c.4.3.7.6.8 1.1h6.9c.1 0 .2 0 .3.1.1 0 .2.1.2.2.1.1.1.2.2.2v.2zm-.8-6h-1.6c-.2-.4-.4-.8-.8-1.1-.4-.3-.8-.4-1.3-.4s-.9.2-1.3.5c-.4.2-.7.6-.8 1H.8c-.2 0-.4.1-.6.3-.1.1-.2.3-.2.5s.1.4.2.5c.1.1.3.2.5.2h7.6c.2.4.4.8.8 1.1.4.3.8.4 1.3.4s.9-.1 1.3-.4c.4-.3.7-.6.8-1.1h1.6c.2 0 .4-.1.5-.2.3-.1.4-.3.4-.5s-.1-.4-.2-.5c-.2-.2-.4-.3-.6-.3zM.8 3h3.9c.2.4.4.8.8 1.1.4.3.8.4 1.3.4s.9-.1 1.3-.4c.3-.3.6-.7.8-1.1h5.4c.2 0 .4-.1.5-.2.1-.2.2-.4.2-.6 0-.2-.1-.4-.2-.5-.1-.1-.3-.2-.5-.2H8.9C8.7 1.1 8.4.7 8 .4 7.7.1 7.2 0 6.8 0s-1 .1-1.3.4c-.4.3-.7.7-.9 1.1H.8c-.2 0-.4.1-.5.2-.2.2-.3.4-.3.5 0 .2.1.4.2.5.2.2.4.3.6.3z" style="fill:#262c40"/></svg>