<svg xmlns="http://www.w3.org/2000/svg" xml:space="preserve" style="enable-background:new 0 0 15 15" viewBox="0 0 15 15"><path d="M10.2 4.4 7.5 7.3V0c.4 0 .7.2.9.6L10 3.9l.2.5z" style="fill:#faf180"/><path d="m4.8 4.4 2.7 2.9V0c-.4 0-.7.2-.9.6L5.1 3.9l-.3.5z" style="fill:#ffaa39"/><path d="M14.9 5.5 7.5 7.3l2.7-2.9.5.1 3.5.5c.3 0 .6.2.7.5z" style="fill:#ffc943"/><path d="m14.7 6.7-2.9 2.9-4.3-2.3 7.4-1.7c.2.3.1.8-.2 1.1z" style="fill:#ffaa39"/><path d="M12.2 14.8 7.5 7.3l4.3 2.4.1.5.6 3.6c.1.4-.1.7-.3 1z" style="fill:#ffc943"/><path d="M12.2 14.8c-.3.3-.7.3-1.1.1L8 13.2l-.4-.2V7.3l4.6 7.5z" style="fill:#ffaa39"/><path d="M7.5 7.3v5.6l-.4.2L4 14.8c-.3.2-.8.1-1.1-.1l4.6-7.4z" style="fill:#faf180"/><path d="m7.5 7.3-4.7 7.5c-.3-.2-.4-.6-.3-1l.6-3.6.1-.5 4.3-2.4z" style="fill:#ffc943"/><path d="M7.5 7.3 3.2 9.6.3 6.7C0 6.4-.1 5.9.1 5.5l7.4 1.8z" style="fill:#ffaa39"/><path d="M7.5 7.3.1 5.5c.1-.3.4-.5.7-.5l3.5-.5.5-.1 2.7 2.9z" style="fill:#ffc943"/></svg>