<svg xmlns="http://www.w3.org/2000/svg" xml:space="preserve" style="enable-background:new 0 0 15 15" viewBox="0 0 15 15"><path d="M9 1 6 4c.8-.1 1.5 0 2.2.2l2.1-2.1c.7-.7 1.8-.7 2.5 0s.7 1.8 0 2.5l-3 3c-.8.9-1.9.9-2.6.2-.3-.3-.9-.3-1.2 0l-.6.5c.2.3.3.5.6.8 1.3 1.3 3.5 1.4 5 0L14 6c1.4-1.4 1.4-3.6 0-5-1.4-1.3-3.6-1.3-5 0z" style="fill:#1a1b1f"/><path d="m6.8 10.7-2.1 2.1c-.7.7-1.8.7-2.5 0s-.7-1.8 0-2.5l3.1-3.1c.7-.7 1.8-.7 2.5 0 .3.3.9.3 1.2 0l.5-.5c-.1-.3-.2-.5-.4-.8-1.3-1.3-3.5-1.4-5 0L1 9c-1.4 1.4-1.4 3.6 0 5s3.6 1.4 5 0l3.1-3.1c-.8.1-1.5 0-2.3-.2z" style="fill:#1a1b1f"/></svg>