<svg xmlns="http://www.w3.org/2000/svg" xml:space="preserve" style="enable-background:new 0 0 43.4 23.4" viewBox="0 0 43.4 23.4"><path d="M21.1 22.8c0-.2.1-.4.3-.6.2-.2.5-.4.7-.6.3-.2.5-.6.7-1 .2-.5.4-1.1.4-1.9v-14c0-.8-.2-1.5-.4-1.9-.2-.4-.5-.8-.7-1-.3-.2-.5-.4-.7-.6-.2-.2-.3-.4-.3-.6 0-.1 0-.2.1-.3.1-.2.2-.3.5-.3h2.6c.9 0 1.8.3 2.5.9.8.6 1.4 1.3 2 2.2.6.9 1.1 2 1.6 3.2.5 1.2.9 2.4 1.2 3.7.4 1.3.7 2.5.9 3.8.2 1.2.4 2.4.6 3.4.2 1 .3 1.9.4 2.6.1.7.2 1.1.3 1.3L37.1.8c0-.1 0-.3.1-.4 0-.1.1-.2.2-.2.2-.2.4-.2.7-.2h4.4c.6 0 .9.3.9.8 0 .2-.1.4-.2.6-.1.2-.2.5-.3.8-.1.3-.2.7-.3 1.2-.1.4-.1 1-.1 1.7v13.3c0 .7 0 1.3.1 1.7.1.4.2.8.3 1.1.1.3.2.6.3.8.1.2.2.4.2.6 0 .1 0 .3-.1.4l-.3.3c-.1.1-.3.1-.5.1h-4.4c-.6 0-.9-.3-.9-.8 0-.2 0-.4.1-.6.1-.2.2-.5.3-.8s.2-.7.3-1.1c.1-.5.2-1 .2-1.7V5c0-.4 0-.7-.1-1 0-.3-.1-.6-.1-.8l-3.2 19.5c0 .2-.2.4-.3.5-.2.1-.4.2-.6.2h-3.7c-.3 0-.5-.1-.7-.4-.2-.3-.3-.7-.4-1.3-.1-.5-.2-1.2-.4-2.2-.1-1-.3-2.1-.5-3.4-.2-1.2-.4-2.5-.7-3.8-.2-1.3-.5-2.5-.9-3.6-.3-1.1-.7-2-1-2.7-.4-.7-.8-1.1-1.2-1.1v13.8c0 .8.2 1.5.4 1.9.2.4.5.8.8 1 .3.2.5.4.7.6.2.2.3.4.3.6 0 .1 0 .2-.1.3 0 .1-.1.1-.2.2-.1 0-.2.1-.4.1h-4.2c-.3 0-.5-.2-.5-.6zM.9 18.3V5c0-.7-.1-1.3-.2-1.7 0-.4-.1-.8-.2-1.1-.1-.3-.3-.6-.4-.8C0 1.2 0 1 0 .8 0 .3.3 0 .9 0h4.4c.2 0 .3 0 .5.1.1 0 .2.1.3.2.1.1.2.2.2.4s-.1.5-.2.7c-.1.2-.2.5-.3.8-.1.3-.2.7-.3 1.1-.1.5-.1 1.1-.1 1.7v5.7c0 .3.1.6.2.7.2.2.4.3.6.3h4.5c.2 0 .4-.1.6-.3.2-.2.2-.4.2-.7V5c0-.7-.1-1.3-.2-1.7-.1-.5-.2-.9-.3-1.2-.1-.3-.2-.6-.3-.8-.1-.2-.1-.4-.1-.6 0-.5.3-.8.9-.8h4.4c.2 0 .3 0 .5.1.1 0 .2.1.3.2.1.1.2.2.2.4s-.1.4-.2.6c-.1.2-.2.5-.3.8-.1.3-.2.7-.3 1.2-.1.4-.1 1-.1 1.7v13.3c0 .7 0 1.3.1 1.7.1.4.2.8.3 1.1s.2.6.3.8c.1.2.2.4.2.6 0 .5-.3.8-.9.8h-4.4c-.2 0-.3 0-.5-.1-.1 0-.2-.1-.3-.2-.1-.1-.1-.3-.1-.4 0-.2 0-.4.1-.6.1-.2.2-.5.3-.8.1-.3.2-.7.3-1.1.1-.5.2-1 .2-1.7v-4.7c0-.3-.1-.5-.2-.6-.2-.1-.4-.2-.6-.2H6.2c-.2 0-.4.1-.6.2-.1.1-.2.3-.2.6v4.7c0 .7 0 1.3.1 1.7.1.4.2.8.3 1.1s.2.7.3.9c.1.2.2.4.2.6 0 .5-.3.8-.9.8H.9c-.2 0-.3 0-.5-.1-.1 0-.2-.1-.3-.2-.1-.2-.1-.3-.1-.5s0-.4.1-.6c.1-.2.2-.5.3-.8s.2-.7.3-1.1c.2-.5.2-1.1.2-1.8z" style="fill:#ebab03"/></svg>