<svg xmlns="http://www.w3.org/2000/svg" xmlns:xlink="http://www.w3.org/1999/xlink" xml:space="preserve" style="enable-background:new 0 0 15 15" viewBox="0 0 15 15"><defs><path id="a" d="M0 0h15v15H0z"/></defs><clipPath id="b"><use xlink:href="#a" style="overflow:visible"/></clipPath><g style="clip-path:url(#b)"><path d="m14.8 13.9-4.3-4.3c.8-1 1.3-2.3 1.3-3.7C11.9 2.7 9.2 0 5.9 0 2.7 0 0 2.7 0 5.9s2.7 5.9 5.9 5.9c1.4 0 2.7-.5 3.7-1.3l4.3 4.3c.1.1.3.2.4.2.2 0 .3-.1.4-.2.4-.2.4-.6.1-.9zm-8.9-3.3c-2.6 0-4.7-2.1-4.7-4.7s2.1-4.7 4.7-4.7 4.7 2.1 4.7 4.7-2.1 4.7-4.7 4.7z" style="opacity:.5;fill:#6d6d6d;enable-background:new"/></g></svg>