<svg xmlns="http://www.w3.org/2000/svg" xml:space="preserve" style="enable-background:new 0 0 14 15" viewBox="0 0 14 15"><path d="m6.2 11.3-1.4 1.4c-.6.6-1.5.6-2.1 0l-1.4-1.4c-.6-.6-.6-1.5 0-2.1l1.4-1.4 3.5 3.5zM13 7.4 6.6 1C6.5.9 6.3.9 6.2.9c-.2 0-.3.1-.4.2L2.9 6.6l4.5 4.5 5.4-2.9c.2-.1.3-.2.3-.4 0-.1 0-.3-.1-.4zm-11 6L.6 12c-.2-.2-.4-.4-.5-.7-.2.7-.1 1.5.5 2.1.4.4.9.6 1.4.6.2 0 .5 0 .7-.1-.3-.1-.5-.3-.7-.5zm5.8-.5L7 12l-1.4 1.4c-.1.1-.3.2-.4.3l.9.9c.2.3.5.4.8.4s.7-.1.9-.4c.5-.5.5-1.2 0-1.7zM9.5 1.5v-1C9.5.2 9.3 0 9 0s-.5.2-.5.5v1c0 .3.2.5.5.5s.5-.2.5-.5zM14 5c0-.3-.2-.5-.5-.5h-1c-.3 0-.5.2-.5.5s.2.5.5.5h1c.3 0 .5-.2.5-.5zm-2.6-1.6 1-1c.2-.2.2-.5 0-.7-.2-.2-.5-.2-.7 0l-1 1c-.2.2-.2.5 0 .7.1.1.2.1.4.1 0 0 .2 0 .3-.1z" style="fill:#02ad51"/></svg>