<svg xmlns="http://www.w3.org/2000/svg" xml:space="preserve" style="enable-background:new 0 0 13 15" viewBox="0 0 13 15"><path d="M11.8 1.9H9v-.5C9 .6 8.3 0 7.5 0h-2C4.7 0 4 .6 4 1.4v.5H1.2C.6 1.9 0 2.4 0 3v1c0 .3.2.5.5.5h12c.3 0 .5-.3.5-.5V3c0-.6-.6-1.1-1.2-1.1zM5 1.4c0-.3.2-.5.5-.5h2c.3 0 .5.2.5.5v.5H5v-.5zM.9 5.4c-.1 0-.2.1-.2.2l.4 8.1c0 .8.7 1.3 1.5 1.3h7.6c.8 0 1.5-.6 1.5-1.3l.4-8.1c0-.1-.1-.2-.2-.2H.9zm7.6 1.2c0-.3.2-.5.5-.5s.5.2.5.5v6.1c0 .3-.2.5-.5.5s-.5-.2-.5-.5V6.6zM6 6.6c0-.3.2-.5.5-.5s.5.2.5.5v6.1c0 .3-.2.5-.5.5s-.5-.3-.5-.5V6.6zm-2.5 0c0-.3.2-.5.5-.5s.5.2.5.5v6.1c0 .3-.2.5-.5.5s-.5-.2-.5-.5V6.6z" style="fill:#fc3636"/></svg>