<svg xmlns="http://www.w3.org/2000/svg" xml:space="preserve" style="enable-background:new 0 0 46 46" viewBox="0 0 46 46"><path d="M17.3 40.2H4.8c-2.6 0-4.8-2.1-4.8-4.8V4.8C0 2.1 2.2 0 4.8 0h23c2.6 0 4.8 2.1 4.8 4.8v11.6c0 .5-.4 1-1 1s-1-.4-1-1V4.8c0-1.6-1.3-2.9-2.9-2.9h-23c-1.6 0-2.9 1.3-2.9 2.9v30.7c0 1.6 1.3 2.9 2.9 2.9h12.5c.5 0 1 .4 1 1 0 .4-.4.8-.9.8z" style="fill:#014433"/><path d="M25.9 17.2H6.7c-.5 0-1-.4-1-1 0-.5.4-1 1-1h19.2c.5 0 1 .4 1 1-.1.6-.5 1-1 1zM18.2 24.9H6.7c-.5 0-1-.4-1-1 0-.5.4-1 1-1h11.5c.5 0 1 .4 1 1s-.5 1-1 1zM16.3 9.6H6.7c-.5 0-1-.4-1-1s.4-1 1-1h9.6c.5 0 1 .4 1 1s-.5 1-1 1zM33.5 46C26.6 46 21 40.4 21 33.5S26.6 21 33.5 21 46 26.6 46 33.5 40.4 46 33.5 46zm0-23C27.7 23 23 27.7 23 33.5S27.7 44 33.5 44 44 39.3 44 33.5c.1-5.8-4.6-10.5-10.5-10.5z" style="fill:#014433"/><path d="M33.5 40.2c-.5 0-1-.4-1-1V27.8c0-.5.4-1 1-1 .5 0 1 .4 1 1v11.5c0 .5-.4.9-1 .9z" style="fill:#014433"/><path d="M39.3 34.5H27.8c-.5 0-1-.4-1-1 0-.5.4-1 1-1h11.5c.5 0 1 .4 1 1-.1.6-.5 1-1 1z" style="fill:#014433"/></svg>