<svg xmlns="http://www.w3.org/2000/svg" xml:space="preserve" style="enable-background:new 0 0 46 49" viewBox="0 0 46 49"><path d="M45.6 10.8 23.3.1c-.2-.1-.4-.1-.6 0L.4 10.8c-.2.1-.4.4-.4.7v26.1c0 .3.2.5.4.6l22.3 10.7c.1 0 .2.1.3.1s.2 0 .3-.1l22.3-10.7c.2-.1.4-.4.4-.6V11.5c0-.3-.2-.6-.4-.7zM23 1.5l20.6 9.9-6 2.9-.1-.1L17 4.4l6-2.9zm-7.6 3.7L36 15.1l-4.2 2-20.6-9.9 4.2-2zm21.1 11.3V24l-3.9 1.9v-7.5l3.9-1.9zm8.1 20.6-20.8 10V22.6l5-2.4c.4-.2.5-.6.3-1s-.6-.5-1-.3L23 21.4 17.9 19c-.4-.2-.8 0-1 .3-.2.4 0 .8.3 1l5 2.4v24.5l-20.8-10V12.6l15.9 7.7c.1 0 .2.1.3.1.3 0 .5-.1.6-.4.2-.4 0-.8-.3-1L2.4 11.5 9.5 8l21.6 10.4V27c0 .2.1.5.3.6.1.1.2.1.4.1.1 0 .2 0 .3-.1l5.4-2.6c.2-.1.4-.4.4-.6v-8.7l6.6-3.2v24.6z" style="fill:#ebab03"/><path d="m7.4 34.3-3.3-1.6c-.4-.2-.8 0-1 .3-.2.4 0 .8.3 1l3.3 1.6c.1 0 .2.1.3.1.3 0 .5-.1.6-.4.3-.4.1-.8-.2-1zM10.4 32.4l-6.3-3c-.4-.2-.8 0-1 .3-.2.4 0 .8.3 1l6.3 3c.1 0 .2.1.3.1.3 0 .5-.1.6-.4.3-.4.1-.9-.2-1z" style="fill:#ebab03"/></svg>