<svg xmlns="http://www.w3.org/2000/svg" xml:space="preserve" style="enable-background:new 0 0 50 46" viewBox="0 0 50 46"><path d="M30.4 6.7c-.1-.4-.5-.7-.9-.8l-2.1-.5-1.1-1.8c-.2-.4-.6-.6-1-.6s-.8.2-1 .6l-1.1 1.8-2.1.5c-.4.1-.7.4-.9.8-.1.4 0 .8.2 1.2l1.4 1.6-.2 2.1c0 .4.1.8.5 1.1.2.2.5.2.7.2.2 0 .3 0 .5-.1l2-.8 2 .8c.4.2.8.1 1.2-.1.3-.2.5-.7.5-1.1l-.2-2.1 1.4-1.6c.2-.3.3-.8.2-1.2zm-2.9 1.9c-.2.2-.3.6-.3.9l.2 1.8-1.6-.7c-.1-.1-.3-.1-.5-.1s-.3 0-.5.1l-1.6.7.2-1.8c0-.3-.1-.7-.3-.9l-1.2-1.4 1.7-.4c.3-.1.6-.3.8-.6l.9-1.5.9 1.5c.2.3.4.5.8.6l1.7.4-1.2 1.4zM10.7 12.7c.2.1.4.2.6.2.1 0 .3 0 .4-.1l1.6-.7 1.6.7c.4.2.8.1 1.1-.1.3-.2.5-.6.5-1l-.2-1.7 1.1-1.3c.3-.3.3-.7.2-1.1-.1-.4-.4-.7-.8-.7l-1.7-.4-.9-1.5c-.2-.3-.6-.5-1-.5s-.7.2-1 .5l-.9 1.5-1.4.4c-.4.1-.7.4-.9.8-.1.4 0 .8.3 1.1l1.1 1.3-.2 1.7c0 .3.2.7.5.9zM12 8c.3-.1.6-.3.7-.5l.6-1.1.7 1.1c.2.3.4.4.7.5l1.2.3-.8.9c-.2.2-.3.5-.3.8l.1 1.2-1.1-.5c-.1-.1-.3-.1-.4-.1-.1 0-.3 0-.4.1l-1.1.5.1-1.2c0-.3-.1-.6-.3-.8l-.8-.9L12 8zM41 7.7c-.1-.4-.4-.7-.8-.7l-1.7-.4-.9-1.5c-.2-.3-.6-.5-1-.5s-.7.2-1 .5l-.9 1.5L33 7c-.4.1-.7.4-.8.7-.1.4 0 .8.2 1.1l1.1 1.3-.2 1.7c0 .4.1.8.5 1 .2.1.4.2.6.2.1 0 .3 0 .4-.1l1.6-.7 1.6.7c.4.2.8.1 1.1-.1.3-.2.5-.6.5-1V10l1.1-1.3c.3-.2.4-.6.3-1zm-2.6 1.5c-.2.2-.3.5-.3.8l.1 1.2-1.1-.5c-.3-.1-.6-.1-.9 0l-1.1.5.1-1.2c0-.3-.1-.6-.3-.8l-.8-.9 1.2-.3c.3-.1.6-.3.7-.5l.6-1.1.6 1.1c.3.2.5.4.8.5l1.2.3-.8.9z" style="fill:#ebab03"/><path d="M5.2 17h3.7c.4 0 .7-.3.7-.7 0-.4-.3-.7-.7-.7H5.2c-.8 0-1.4-.6-1.4-1.4V9.3c0-4.3 3.5-7.8 7.8-7.8h26.7c4.3 0 7.8 3.5 7.8 7.8v4.8c0 .8-.6 1.4-1.4 1.4H27c-.5 0-.9.2-1.1.6l-.9 1.6-.9-1.6c-.2-.4-.7-.6-1.1-.6H8.6c-.4 0-.7.3-.7.7 0 .4.3.7.7.7h14.3l1 1.8c.2.4.6.6 1.1.6.5 0 .9-.2 1.1-.6l1-1.8h17.6c1.6 0 2.8-1.3 2.8-2.8V9.3c0-5.1-4.2-9.3-9.3-9.3H11.7C6.6 0 2.4 4.2 2.4 9.3v4.8c0 1.6 1.3 2.9 2.8 2.9zM48.4 41.2h-1l-.3-1.2c-.4-1.7-1.3-3.3-2.7-4.4-.8-.6-1.7-1.1-2.6-1.4 1-.8 1.6-2.1 1.6-3.5 0-2.5-2.1-4.6-4.6-4.6-2.5 0-4.6 2.1-4.6 4.6 0 1.5.7 2.8 1.7 3.6-.9.3-1.7.7-2.5 1.3-.5-.6-1-1.1-1.5-1.5-1.1-.9-2.4-1.6-3.7-2 1.5-1 2.5-2.8 2.5-4.7 0-3.2-2.6-5.7-5.7-5.7s-5.7 2.6-5.7 5.7c0 2 1 3.7 2.5 4.7-1.4.4-2.6 1.1-3.7 2-.6.5-1.1 1-1.5 1.5-.7-.6-1.6-1-2.5-1.3 1.1-.8 1.7-2.1 1.7-3.6 0-2.5-2.1-4.6-4.6-4.6-2.5 0-4.6 2.1-4.6 4.6 0 1.4.6 2.6 1.6 3.5-1 .3-1.9.8-2.6 1.4-1.4 1.1-2.3 2.7-2.7 4.4l-.3 1.2h-1c-.9 0-1.6.7-1.6 1.6v1.7c0 .8.7 1.5 1.6 1.5h35.5c.4 0 .7-.3.7-.7 0-.4-.3-.7-.7-.7H1.6s-.1 0-.1-.1v-1.7s0-.1.1-.1h46.9s.1 0 .1.1v1.7s0 .1-.1.1H36.7c-.4 0-.7.3-.7.7 0 .4.3.7.7.7h11.8c.9 0 1.6-.7 1.6-1.6v-1.7c-.1-.8-.8-1.5-1.7-1.5zM35.7 30.7c0-1.7 1.4-3.1 3.1-3.1 1.7 0 3.1 1.4 3.1 3.1 0 1.7-1.4 3.1-3.1 3.1-1.7 0-3.1-1.4-3.1-3.1zm3.1 4.6h.8c1.4 0 2.9.5 4 1.4 1.1.9 1.9 2.2 2.2 3.6l.2.9H35.8c.1-.3.1-.5 0-.8-.3-1.3-.8-2.5-1.5-3.6 1.3-1 2.9-1.5 4.5-1.5zm-18-7.9c0-2.3 1.9-4.2 4.2-4.2s4.2 1.9 4.2 4.2-1.9 4.2-4.2 4.2-4.2-1.9-4.2-4.2zM19 35.2c1.7-1.4 3.8-2.1 6-2.1s4.3.8 6 2.1c1.7 1.4 2.9 3.3 3.4 5.5 0 .2 0 .3-.1.4 0 0 0 .1-.1.1H15.8c-.1-.1-.2-.3-.1-.5.4-2.2 1.6-4.1 3.3-5.5zm-7.8-7.6c1.7 0 3.1 1.4 3.1 3.1 0 1.7-1.4 3.1-3.1 3.1-1.7 0-3.1-1.4-3.1-3.1 0-1.7 1.4-3.1 3.1-3.1zM4.3 40.3c.3-1.4 1.1-2.7 2.2-3.6 1.1-.9 2.5-1.4 4-1.4h.8c1.6 0 3.2.5 4.4 1.5-.7 1.1-1.2 2.3-1.5 3.6-.1.3-.1.6 0 .8H4.1l.2-.9z" style="fill:#ebab03"/></svg>