<svg xmlns="http://www.w3.org/2000/svg" xml:space="preserve" style="enable-background:new 0 0 50 41" viewBox="0 0 50 41"><path d="M47.1 41H2.9C1.3 41 0 39.7 0 38.1V2.9C0 1.3 1.3 0 2.9 0h44.2C48.7 0 50 1.3 50 2.9v35.2c0 1.6-1.3 2.9-2.9 2.9zM2.9 1.6c-.7 0-1.3.6-1.3 1.3v35.2c0 .7.6 1.3 1.3 1.3h44.2c.7 0 1.3-.6 1.3-1.3V2.9c0-.7-.6-1.3-1.3-1.3H2.9z" style="fill:#014433"/><path d="M49.2 8.6H.8c-.5 0-.8-.4-.8-.8S.3 7 .8 7h48.4c.4 0 .8.4.8.8s-.4.8-.8.8zM44.4 5.1H23.3c-.4 0-.8-.3-.8-.8 0-.4.3-.8.8-.8h21.1c.4 0 .8.3.8.8 0 .4-.3.8-.8.8zM6.6 5.3c.6 0 1-.5 1-1 0-.6-.5-1-1-1s-1 .5-1 1c0 .6.4 1 1 1zM11 5.3c.6 0 1-.5 1-1 0-.6-.5-1-1-1-.6 0-1 .5-1 1-.1.6.4 1 1 1zM15.4 5.3c.6 0 1-.5 1-1 0-.6-.5-1-1-1-.6 0-1 .5-1 1-.1.6.4 1 1 1zM45 22.7H5c-.4 0-.8-.3-.8-.8v-9.6c0-.4.3-.8.8-.8h40c.4 0 .8.3.8.8v9.6c0 .5-.4.8-.8.8zM5.8 21.1h38.4v-8H5.8v8zM45 36.5H29.6c-.4 0-.8-.3-.8-.8v-9.6c0-.4.3-.8.8-.8H45c.4 0 .8.3.8.8v9.6c0 .4-.4.8-.8.8zm-14.7-1.6h13.9v-8H30.3v8zM25.4 27.5H19c-.4 0-.8-.3-.8-.8 0-.4.3-.8.8-.8h6.4c.4 0 .8.3.8.8 0 .4-.4.8-.8.8zM16.3 27.5H5c-.4 0-.8-.3-.8-.8 0-.4.3-.8.8-.8h11.3c.4 0 .8.3.8.8 0 .4-.4.8-.8.8zM25.4 31.7H12.7c-.4 0-.8-.3-.8-.8s.3-.8.8-.8h12.7c.4 0 .8.3.8.8s-.4.8-.8.8zM9.9 31.7H5c-.4 0-.8-.3-.8-.8s.3-.8.8-.8h4.9c.4 0 .8.3.8.8s-.3.8-.8.8zM25.4 35.9h-4.7c-.4 0-.8-.3-.8-.8s.3-.8.8-.8h4.7c.4 0 .8.3.8.8s-.4.8-.8.8zM17.6 35.9H5c-.4 0-.8-.3-.8-.8s.3-.8.8-.8h12.6c.4 0 .8.3.8.8s-.4.8-.8.8z" style="fill:#014433"/></svg>