<svg xmlns="http://www.w3.org/2000/svg" xml:space="preserve" style="enable-background:new 0 0 49 49" viewBox="0 0 49 49"><path d="m13.3 36.1-.2-1c-.1-.4-.5-.6-.9-.6-.4.1-.7.5-.6.9l.2 1c.1.3.4.6.7.6h.2c.4-.1.7-.5.6-.9zM15 43.8l-1-4.5c-.1-.4-.5-.6-.9-.6-.4.1-.7.5-.6.9l1 4.5c.1.3.4.6.7.6h.2c.5-.1.7-.5.6-.9zM21.9 43.8l-.7-8.7c0-.4-.4-.7-.8-.7s-.7.4-.7.8l.7 8.7c0 .4.4.7.8.7h.1c.3-.1.6-.4.6-.8zM28.9 41.4c-.4 0-.8.3-.8.7l-.1 1.7c0 .4.3.7.7.8h.1c.4 0 .7-.3.8-.7l.1-1.7c-.1-.4-.4-.7-.8-.8zM29.4 34.5c-.4 0-.8.3-.8.7l-.3 3.7c0 .4.3.7.7.8h.1c.4 0 .7-.3.8-.7l.3-3.7c-.1-.5-.4-.8-.8-.8zM36.8 34.4c-.4-.1-.8.2-.9.6l-2 8.7c-.1.4.2.8.6.9h.2c.4 0 .7-.2.7-.6l2-8.7c.1-.4-.2-.8-.6-.9z" style="fill:#014433"/><path d="M47.4 26.8h-3.9v-7.2c0-.3-.1-.6-.2-.9l-1.7-3c.7-.2 1.2-.7 1.2-1.4v-1.1c0-.8-.7-1.4-1.5-1.4H30.6c-.8 0-1.5.6-1.5 1.4v1.1c-.3-.5-.7-1-1.1-1.5-1-1-1.5-2.2-1.5-3.5v-.7c.2-.2.3-.4.3-.7V1c0-.5-.5-1-1-1h-4.6c-.6 0-1 .4-1 1v7c0 .3.1.5.3.7v.7c0 1.3-.5 2.6-1.5 3.5-1.2 1.2-1.9 2.8-1.9 4.5v5.9l-.9-5c-.2-1.2-1-2.2-2.1-2.8-1.1-.6-2.4-.7-3.6-.4l-.5.2c-.4-2.2.1-4.5.1-4.5.1-.4-.2-.8-.6-.8-.4-.1-.8.2-.9.6 0 .1-.4 2.1-.2 4.2L6.1 8.1c-.1-.4-.6-.6-1-.4-.4.1-.6.5-.5.9l2.2 5.9c0-.1-.1-.2-.1-.2-1.4-2.3-2.8-3.7-4.2-4.2-.4-.1-.8 0-1 .4-.2.4 0 .8.4.9 1.7.6 3.3 3.3 4.3 5.2l-.5.2c-1.2.4-2.2 1.3-2.6 2.4-.5 1.1-.4 2.4.2 3.4l2.4 4.3h-4c-.9 0-1.6.7-1.6 1.5v2c0 .8.7 1.5 1.6 1.5h1.7l3.4 14.4c.4 1.6 1.8 2.7 3.5 2.7h28.4c1.7 0 3.2-1.1 3.5-2.7l3.4-14.4h1.7c.9 0 1.6-.7 1.6-1.5v-2c.1-.9-.6-1.6-1.5-1.6zm-5.5-7.4c0 .1.1.1.1.2v7.2h-1.2v-4.9c0-.6-.5-1-1.1-1h-7.5c-.6 0-1.1.5-1.1 1v4.9h-1.2v-7.2c0-.1 0-.2.1-.2l2-3.6h7.9l2 3.6zm-2.7 2.9v4.5h-6.6v-4.5h6.6zm-8.6-9h10.6v1.1H30.6v-1.1zm-.3 2.4-.4.8c-.1-.4-.1-.8-.3-1.1.2.1.4.3.7.3zM21.7 1.4h3.6v6h-3.6v-6zm-1.5 12.4c1.2-1.2 1.9-2.8 1.9-4.5v-.4H25v.5c0 1.7.7 3.3 1.9 4.5 1 1 1.5 2.2 1.5 3.5v1.8h-5.8c-.8 0-1.5.6-1.5 1.4v6.2h-2.3v-9.4c-.1-1.4.4-2.6 1.4-3.6zm8.2 6.8v6.2h-5.8v-6.2h5.8zM5.2 23l-.7-1.2c-.4-.7-.4-1.5-.1-2.2.3-.7.9-1.3 1.7-1.6l4.9-1.6c.8-.3 1.7-.2 2.4.2s1.2 1.1 1.4 1.9l1.5 8.3H9.6l1.4-.4c.4-.1.6-.5.5-.9-.1-.4-.6-.6-1-.4l-3.5 1-1-1.8 4.7-1.5c.4-.1.6-.5.5-.9-.1-.4-.6-.6-1-.4l-5 1.5zm35.6 23c-.2.9-1.1 1.6-2.1 1.6H10.3c-1 0-1.8-.6-2.1-1.6L4.9 31.9h39.2L40.8 46zm6.7-15.7c0 .1 0 .1-.1.1H1.6c-.1 0-.1 0-.1-.1v-2c0-.1 0-.1.1-.1h45.7c.1 0 .1 0 .1.1l.1 2z" style="fill:#014433"/></svg>