<svg xmlns="http://www.w3.org/2000/svg" xml:space="preserve" style="enable-background:new 0 0 50 39" viewBox="0 0 50 39"><path d="M45.7 6.5h-6.3c-1.1 0-2.1-.6-2.5-1.6l-1.3-2.6C34.8.9 33.3 0 31.7 0H18.3c-1.7 0-3.1.9-3.9 2.4l-1.2 2.5c-.4.9-1.3 1.5-2.3 1.6V5.1c0-.8-.6-1.4-1.4-1.4h-4c-.8 0-1.4.6-1.4 1.4v1.4c-2.3.1-4.1 2-4.1 4.3v23.9C0 37.1 1.9 39 4.3 39h1.4c.4 0 .7-.3.7-.7s-.3-.7-.7-.7H4.3c-1.6 0-2.8-1.3-2.8-2.8v-24C1.5 9.2 2.8 8 4.3 8h6.3c1.7 0 3.1-.9 3.9-2.4l1.2-2.5c.5-1 1.5-1.6 2.6-1.6h13.4c1.1 0 2.1.6 2.5 1.6l1.3 2.6c.7 1.5 2.2 2.4 3.8 2.4h6.3c1.6 0 2.8 1.3 2.8 2.8v23.9c0 1.6-1.3 2.8-2.8 2.8H4.8c-.4 0-.7.3-.7.7s.3.7.7.7h40.9c2.4 0 4.3-1.9 4.3-4.3V10.8c0-2.4-1.9-4.3-4.3-4.3zm-40.2 0V5.2h3.9v1.3H5.5z" style="fill:#ebab03"/><path d="M12.6 22.2c0 6.9 5.6 12.4 12.4 12.4S37.4 29 37.4 22.2 31.9 9.8 25 9.8s-12.4 5.6-12.4 12.4zM25 11.3c6.1 0 11 4.9 11 11 0 6-4.9 11-11 11s-11-4.9-11-11 4.9-11 11-11z" style="fill:#ebab03"/><path d="M25 31.2c5 0 9-4 9-9 0-1.2-.3-2.5-.7-3.6-.2-.4-.6-.5-1-.4-.4.2-.5.6-.4 1 .4 1 .6 2 .6 3 0 4.2-3.4 7.5-7.5 7.5s-7.5-3.4-7.5-7.5c0-4.2 3.4-7.5 7.5-7.5 2 0 3.8.7 5.2 2.1.3.3.8.3 1 0 .3-.3.3-.8 0-1-1.7-1.6-3.9-2.5-6.2-2.5-5 0-9 4-9 9s4 8.9 9 8.9zM5.8 9.8c-1.3 0-2.4 1.1-2.4 2.4s1.1 2.4 2.4 2.4 2.4-1.1 2.4-2.4-1.1-2.4-2.4-2.4zm0 3.3c-.5 0-.9-.4-.9-.9s.4-.9.9-.9.9.4.9.9-.4.9-.9.9zM28.6 5.2c.4 0 .7-.3.7-.7 0-.4-.3-.7-.7-.7h-7.3c-.4 0-.7.3-.7.7 0 .4.3.7.7.7h7.3zM45.1 12c.4 0 .7-.3.7-.7s-.3-.7-.7-.7h-1.2c-.4 0-.7.3-.7.7s.3.7.7.7h1.2z" style="fill:#ebab03"/></svg>