<svg xmlns="http://www.w3.org/2000/svg" xml:space="preserve" style="enable-background:new 0 0 20.6 23.5" viewBox="0 0 20.6 23.5"><path d="M15.2 0h.2c.1 1.7-.5 2.9-1.4 3.8-.8.9-1.9 1.8-3.7 1.6-.1-1.6.6-2.8 1.4-3.7.7-.8 2.1-1.5 3.5-1.7zM20.6 17.3c-.5 1.5-1.2 2.7-2.1 3.8-.8 1-1.8 2.4-3.5 2.4-1.5 0-2.5-.9-4.1-.9-1.6 0-2.5.8-4 1h-.5c-1.1-.1-2-1-2.6-1.7-1.9-2.2-3.4-5-3.7-8.6v-1.1c.1-2.6 1.5-4.6 3.2-5.7.9-.5 2.2-1 3.7-.8.6.1 1.2.3 1.8.5.5.2 1.2.5 1.8.5.4 0 .8-.2 1.3-.4 1.2-.4 2.5-.9 4-.7 1.8.4 3.2 1.2 4 2.4-1.6 1-2.9 2.4-2.7 4.9.2 2.3 1.6 3.6 3.4 4.4z"/></svg>