<svg xmlns="http://www.w3.org/2000/svg" xml:space="preserve" style="enable-background:new 0 0 15 13" viewBox="0 0 15 13"><path d="M12.8 7h-1.2c.1.3.2.7.2 1.1v4.5c0 .2 0 .3-.1.4h1.9c.7 0 1.3-.6 1.3-1.3V9.2C15 8 14 7 12.8 7zM3.1 8.1c0-.4.1-.7.2-1.1H2.2C1 7 0 8 0 9.2v2.4c0 .8.6 1.4 1.3 1.4h1.9c0-.1-.1-.3-.1-.4V8.1zM8.8 5.9H6.2C5 5.9 4 6.9 4 8.1v4.5c0 .2.2.4.4.4h6.1c.2 0 .4-.2.4-.4V8.1c.1-1.2-.9-2.2-2.1-2.2zM7.5 0C6.1 0 4.9 1.2 4.9 2.7c0 1 .5 1.9 1.3 2.3.4.2.8.3 1.3.3s.9-.1 1.3-.3c.8-.5 1.3-1.3 1.3-2.3C10.1 1.2 8.9 0 7.5 0zM2.9 2.5c-1 0-1.9.9-1.9 2s.9 2 1.9 2c.3 0 .5-.1.8-.2.4-.2.7-.5 1-.9.1-.3.2-.6.2-.9 0-1.1-.9-2-2-2zM12.1 2.5c-1.1 0-1.9.9-1.9 2 0 .3.1.7.2.9.2.4.5.7 1 .9.2.1.5.2.8.2 1.1 0 1.9-.9 1.9-2-.1-1.1-1-2-2-2z" style="fill:#fff"/></svg>