<svg xmlns="http://www.w3.org/2000/svg" xml:space="preserve" style="enable-background:new 0 0 16 13" viewBox="0 0 16 13"><path d="M15.2 4.4c0-.2 0-.3-.1-.5-.1-.1-.3-.2-.4-.2H1.3c-.2 0-.3.1-.4.2-.1.1-.2.3-.1.5 0 0 .8 4.6 1.1 6.9.2 1 1 1.7 2 1.7h8.2c1 0 1.9-.7 2-1.7l1.1-6.9zm-1.2.4-1 6.3c-.1.4-.5.8-.9.8H3.9c-.5 0-.8-.3-.9-.8L2 4.8h12z" style="fill-rule:evenodd;clip-rule:evenodd;fill:#fff"/><path d="M12.9 4 10.7.3c-.1-.3-.5-.4-.8-.2-.2.1-.3.5-.1.7L12 4.6c.2.3.5.3.8.2.2-.2.3-.6.1-.8zM4 4.6 6.2.9c.2-.3.1-.6-.2-.8-.2-.2-.6-.1-.7.2L3.1 4c-.2.2-.1.6.1.7.3.2.7.1.8-.1zM7.4 6.9v3c0 .3.3.6.6.6s.6-.2.6-.6v-3c0-.3-.3-.6-.6-.6s-.6.3-.6.6zM4.5 6.9v3c0 .3.3.6.6.6s.6-.2.6-.6v-3c0-.3-.3-.6-.6-.6-.4 0-.6.3-.6.6zM10.4 6.9v3c0 .3.3.6.6.6s.6-.2.6-.6v-3c0-.3-.3-.6-.6-.6s-.6.3-.6.6z" style="fill-rule:evenodd;clip-rule:evenodd;fill:#fff"/><path d="M15.4 3.7H.6c-.3 0-.6.3-.6.6s.3.6.6.6h14.9c.3 0 .6-.2.6-.6-.1-.3-.3-.6-.7-.6z" style="fill-rule:evenodd;clip-rule:evenodd;fill:#fff"/></svg>