<svg xmlns="http://www.w3.org/2000/svg" xml:space="preserve" style="enable-background:new 0 0 14 13" viewBox="0 0 14 13"><path d="M7 0C3.1 0 0 2.7 0 6.1 0 7.5.6 8.9 1.6 10c.2.8 0 1.7-.7 2.3-.2.3 0 .7.3.7 1.2 0 2.3-.5 3.1-1.3.9.3 1.8.5 2.7.5 3.8 0 7-2.7 7-6.1S10.8 0 7 0zM3.7 7.3c-.7 0-1.2-.5-1.2-1.2s.6-1.2 1.2-1.2c.7 0 1.3.5 1.3 1.2s-.6 1.2-1.3 1.2zm3.3 0c-.7 0-1.2-.5-1.2-1.2S6.3 4.9 7 4.9s1.2.5 1.2 1.2S7.7 7.3 7 7.3zm3.3 0c-.7 0-1.2-.5-1.2-1.2s.6-1.2 1.2-1.2c.7 0 1.2.5 1.2 1.2s-.5 1.2-1.2 1.2z" style="fill:#4d76ff"/></svg>