<svg xmlns="http://www.w3.org/2000/svg" xml:space="preserve" style="enable-background:new 0 0 728 214.5" viewBox="0 0 728 214.5"><path d="M213 214.5c59.2 0 107.3-48 107.3-107.3C320.3 48 272.3 0 213 0S105.8 48 105.8 107.3c0 59.2 48 107.2 107.2 107.2z" style="fill:#ffb900;fill-opacity:.2"/><path d="m39.5 63.3 11.8 5.9-.2-2.4-8.2-8.7-3.4 5.2z" style="fill:#c99100"/><path d="m50.5 53.1-27 25c-1.3 1.2-3.3.7-3.9-1L.1 21.5c-.6-1.8 1-3.6 2.9-3.1l61.8 16.4c1.8.5 2.4 2.8 1 4.1L50.5 53.1z" style="fill:#ffc839"/><path d="m8.4 26.3 34.5 33.8 8.2 9c.6.6 1.7.1 1.5-.8l-2.3-15.1L8.4 26.3z" style="fill:#ebab03"/><path d="M280.8 169.3V168.2l-.1-.7-14.2-63.6c0-.1 0-.2-.1-.2v-.2c0-.1 0-.1-.1-.2 0-.1 0-.1-.1-.2 0-.1 0-.1-.1-.2 0-.1-.1-.1-.1-.2-.1-.1-.1-.3-.2-.4-.1-.1-.1-.2-.2-.2-.2-.3-.4-.5-.7-.8l-.2-.2c-.1-.1-.3-.2-.4-.3-.1 0-.1-.1-.2-.1s-.1-.1-.2-.1l-.3-.1-7.2-3.3-10.1-45.4c-1-4.6-5.5-7.4-10.1-6.4l-90.3 20.2c-4.6 1-7.4 5.5-6.4 10.1l10.1 45.4-5.1 6-.2.2c-.5.7-.9 1.5-1 2.3-.1.5 0 1.1.1 1.6l14.3 64.1v.4c0 .1.1.2.1.3v.2c0 .1 0 .1.1.2v.2c0 .1.1.1.1.2 0 0 0 .1.1.1 0 0 0 .1.1.1 0 .1.1.1.1.2l.1.1v.1c0 .1.1.1.1.2l.1.1.2.2.2.2.1.1.1.1h.1c.1.1.2.1.3.2 0 0 .1 0 .1.1 0 0 .1 0 .1.1.2.1.3.2.5.2h.2c.1 0 .1 0 .2.1h2.1l113.5-25.4.3-.1c.1 0 .2 0 .2-.1h.6s.1 0 .1-.1c.1 0 .2-.1.3-.1H278.1c.2-.1.4-.3.5-.4 0 0 .1 0 .1-.1l.1-.1.1-.1.1-.1.1-.1s0-.1.1-.1c0 0 0-.1.1-.1 0 0 0-.1.1-.1v-.2l.1-.1s.1-.1.1-.2v-.1c0-.1.1-.2.1-.2v-.2c0-.1 0-.1.1-.2V170.5c0-.1.1-.2.1-.3V169.5c.9-.1.9-.1.9-.2 0 .1 0 0 0 0z" style="opacity:.18;fill:#593f00;enable-background:new"/><path d="m270.3 97 14.4 64.4V163.3c0 .1 0 .2-.1.3V163.9c0 .1-.1.1-.1.2v.1c0 .1-.1.2-.1.3 0 .1-.1.1-.1.2s-.1.1-.1.2c0 0 0 .1-.1.1 0 0 0 .1-.1.1 0 0 0 .1-.1.1-.1.1-.1.2-.2.2l-.2.2-.1.1-.1.1-.1.1-.1.1c-.2.2-.4.3-.6.4l-.1.1c-.1.1-.2.1-.3.1 0 0-.1 0-.1.1H281.4c-.1 0-.2 0-.2.1l-113.8 25.4h-1.6c-.3 0-.5-.1-.8-.2-.1 0-.1 0-.2-.1-.1 0-.1-.1-.2-.1-.4-.2-.8-.4-1.2-.7-.1-.1-.2-.1-.2-.2-.3-.2-.5-.5-.7-.8 0-.1-.1-.1-.1-.2s-.1-.1-.1-.2-.1-.2-.1-.2c0-.1-.1-.1-.1-.2s-.1-.1-.1-.2 0-.1-.1-.2c0-.1-.1-.2-.1-.3l-14.4-64.4c-.1-.6-.1-1.1-.1-1.6.1-.8.4-1.6 1-2.3l.2-.2c.6-.7 1.5-1.2 2.5-1.4l113.7-25.4c.1 0 .2 0 .3-.1h1.5c.1 0 .3.1.4.1.1 0 .2 0 .2.1.1 0 .3.1.4.1l.3.1c.1 0 .1.1.2.1s.1.1.2.1c.2.1.3.2.4.3l.2.2c.3.2.5.5.7.8.1.1.1.2.2.2.1.1.2.3.2.4 0 .1.1.1.1.2s0 .1.1.2c0 .1 0 .1.1.2 0 .1 0 .1.1.2v.5z" style="fill:#f9c067"/><path d="m269.7 95.5-122.4 27.3c.1-.8.4-1.6 1-2.3l.2-.2 47.1-55.7c1.4-1.6 3.7-2.2 5.6-1.3l66.3 30.4.3.1c.1 0 .1.1.2.1s.1.1.2.1c.2.1.3.2.4.3l.2.2c.3.2.5.5.7.8 0 .1.1.1.2.2z" style="fill:#dd9b31"/><path d="M271.9 142 165 165.8l-21.6-97c-1-4.6 1.9-9.1 6.4-10.1l90.3-20.2c4.6-1 9.1 1.9 10.1 6.4l21.7 97.1z" style="fill:#fff"/><path d="M242.2 75.5 163.7 93c-1.1.2-2.2-.5-2.4-1.6l-.2-.9c-.2-1.1.5-2.2 1.6-2.5l78.5-17.5c1.1-.2 2.2.5 2.4 1.6l.2.9c.2 1.1-.5 2.2-1.6 2.5zM244.5 85.9 166 103.4c-1.1.2-2.2-.5-2.4-1.6l-.2-.9c-.2-1.1.5-2.2 1.6-2.5L243.4 81c1.1-.2 2.2.5 2.4 1.6l.2.9c.3 1-.4 2.1-1.5 2.4zM246.8 96.2l-78.5 17.5c-1.1.2-2.2-.5-2.4-1.6l-.2-.9c-.2-1.1.5-2.2 1.6-2.4l78.5-17.5c1.1-.2 2.2.5 2.4 1.6l.2.9c.2 1.1-.5 2.2-1.6 2.4zM249.1 106.6l-78.5 17.5c-1.1.2-2.2-.5-2.4-1.6l-.2-.9c-.2-1.1.5-2.2 1.6-2.4l78.5-17.5c1.1-.2 2.2.5 2.4 1.6l.2.9c.2 1-.5 2.1-1.6 2.4zM251.4 116.9l-78.5 17.5c-1.1.2-2.2-.5-2.4-1.6l-.2-.9c-.2-1.1.5-2.2 1.6-2.4l78.5-17.5c1.1-.2 2.2.5 2.4 1.6l.2.9c.2 1.1-.5 2.2-1.6 2.4z" style="fill:#e4ecf9"/><path d="m193.7 66.7-34.2 7.7c-1.1.2-2.2-.5-2.4-1.6l-.2-.9c-.2-1.1.5-2.2 1.6-2.5l34.2-7.6c1.1-.2 2.2.5 2.4 1.6l.2.9c.2 1-.5 2.1-1.6 2.4z" style="fill:#014433"/><path d="M216.4 144.7c-.1.2-.3.5-.5.7l-48.3 47.1-.3.1c-.5.1-.9.1-1.4.1h-.2c-.8-.1-1.5-.4-2.2-.8-.1 0-.1-.1-.2-.1-.2-.1-.3-.3-.5-.5l-.2-.2c0-.1-.1-.1-.1-.2-.4-.5-.7-1.2-.9-1.9l-14.4-64.4c-.1-.6-.1-1.1-.1-1.6.1-.8.4-1.6 1-2.3l.2-.2c.6-.7 1.5-1.2 2.5-1.4.7-.2 1.4-.1 2.1.1l4.6 1.6 51.6 17.8 1.9.7 3.7 1.3c.3.1.5.2.8.4 1.3.6 1.7 2.4.9 3.7z" style="fill:#ebab03"/><path d="m270.3 97 14.4 64.4V163.3c0 .1 0 .2-.1.3V163.9c0 .1-.1.1-.1.2v.1c0 .1-.1.2-.1.3 0 .1-.1.1-.1.2s-.1.1-.1.2c0 0 0 .1-.1.1 0 0 0 .1-.1.1 0 0 0 .1-.1.1-.1.1-.1.2-.2.2l-.2.2-.1.1-.1.1-.1.1-.1.1c-.2.2-.4.3-.6.4l-.1.1c-.1.1-.2.1-.3.1 0 0-.1 0-.1.1H281.4c-.1 0-.2 0-.2.1l-.3.1-63.7-22.1c-.3-.1-.5-.2-.7-.4-1.3-.9-1.7-2.6-.9-3.9.1-.2.3-.5.5-.7l2.8-2.7 1.5-1.4 39.1-38.1 3.5-3.5c.5-.4 1-.8 1.6-.9h.1c.1 0 .2 0 .3-.1h1.5c.1 0 .3.1.4.1.1 0 .2 0 .2.1.1 0 .3.1.4.1l.3.1c.1 0 .1.1.2.1s.1.1.2.1c.2.1.3.2.4.3l.2.2c.3.2.5.5.7.8.1.1.1.2.2.2.1.1.2.3.2.4 0 .1.1.1.1.2s0 .1.1.2c0 .1 0 .1.1.2 0 .1 0 .1.1.2V97z" style="fill:#ebab03"/><path d="m284.5 160.6.1.7c.6 2.7-1 5.3-3.5 5.8l-113.7 25.4c-2.5.6-5.1-1.1-5.7-3.8l-.1-.7 49.9-51.6c1.5-1.6 3.9-2.1 5.9-1.3l67.1 25.5z" style="opacity:.25;fill:#8e5f13;enable-background:new"/><path d="m284.5 160.8.1.6c.6 2.5-1 5.1-3.6 5.6l-113.7 25.4c-2.5.6-5.1-1-5.6-3.6l-.1-.6 50.3-50c1.6-1.6 3.9-2.1 5.9-1.3l66.7 23.9z" style="fill:#ffc839"/><path d="M285.3 75.4c10.2-10.2 10.2-26.8 0-37s-26.8-10.2-37 0-10.2 26.8 0 37 26.8 10.2 37 0z" style="opacity:.18;fill:#306c9e;enable-background:new"/><path d="M270.3 79.1c14.4 0 26.2-11.7 26.2-26.2s-11.7-26.2-26.2-26.2c-14.4 0-26.2 11.7-26.2 26.2s11.7 26.2 26.2 26.2z" style="fill:#014433"/><path d="m275.6 46.4.8-1.8 4.4 1-5.1 11.4c-.3.7-.5 1.2-.6 1.5-.1.3 0 .5.1.6.1.2.2.3.4.3.6.1 1.5-.1 2.6-.7s2.2-1.5 3.2-2.7c1-1.2 1.7-2.6 2-4.2.3-1.3.3-2.6.1-3.9-.3-1.3-.8-2.5-1.5-3.5-.8-1.1-1.8-2-3.1-2.8s-2.8-1.4-4.6-1.8c-1.8-.4-3.5-.5-5.1-.4-1.6.1-3.1.5-4.4 1.2-1.3.6-2.5 1.5-3.6 2.7-.9 1-1.7 2.1-2.4 3.4-.7 1.3-1.1 2.7-1.5 4.1-.4 1.9-.4 3.7 0 5.5.4 1.8 1.2 3.3 2.5 4.7 1.2 1.4 2.8 2.5 4.8 3.4 2 .9 4.3 1.5 6.9 1.8 2.1.2 4 .1 5.5-.3 1.6-.4 3-1.1 4.3-2.1l3.6.8c-.8 1.1-1.8 2-2.9 2.7-1.1.7-2.4 1.3-3.8 1.7-1.4.4-2.9.6-4.5.6s-3.3-.2-5.2-.6c-2.7-.6-5.1-1.5-7.2-2.7-2-1.2-3.7-2.6-4.9-4.3-1.2-1.7-2-3.5-2.3-5.6-.4-2-.3-4.2.2-6.5.5-2.4 1.4-4.5 2.6-6.4 1.2-1.9 2.8-3.4 4.6-4.6 1.8-1.2 3.9-2 6.2-2.4 2.3-.4 4.8-.3 7.4.2 2.1.5 4 1.2 5.6 2.2 1.6 1 2.9 2.2 4 3.6 1 1.4 1.7 3 2 4.7.3 1.7.3 3.5-.1 5.5-.3 1.5-.9 2.9-1.8 4.2-.8 1.3-1.9 2.4-3.1 3.4-1.2.9-2.6 1.6-4.1 1.9-1.5.4-3 .4-4.6.1-.9-.2-1.6-.5-2-.9-.4-.4-.7-1-.7-1.7-1.2.7-2.4 1.1-3.7 1.1-1.3 0-2.5-.4-3.6-1.1-1.1-.7-1.9-1.8-2.3-3.1-.5-1.3-.5-2.8-.2-4.5.4-1.8 1.1-3.4 2.2-4.9 1.1-1.5 2.5-2.7 4.1-3.5 1.6-.8 3.3-1 5.1-.6 1.8.6 3.1 1.6 3.7 3.3zm-11 6.7c-.3 1.3-.2 2.4.2 3.2.4.8 1.1 1.3 2 1.5 1 .2 2.1 0 3-.7 1-.7 1.8-1.6 2.5-2.8.7-1.2 1.2-2.4 1.4-3.6.1-.6.2-1.1.1-1.6 0-.5-.2-1-.3-1.4-.2-.4-.5-.8-.8-1-.3-.3-.8-.5-1.3-.6-1-.2-1.9 0-2.9.6s-1.8 1.5-2.5 2.6c-.6 1.3-1.1 2.5-1.4 3.8z" style="fill:#f9f9f9"/><path d="m682.6 57-13.5 6.7.2-2.7 9.4-10 3.9 6z" style="fill:#c99100"/><path d="M670 45.2 701 74c1.5 1.3 3.8.8 4.5-1.1L727.9 9c.7-2.1-1.2-4.1-3.3-3.6l-70.9 18.8c-2.1.6-2.8 3.2-1.2 4.7L670 45.2z" style="fill:#ffc839"/><path d="m718.4 14.5-39.7 38.8-9.4 10.3c-.7.7-1.9.1-1.8-.9l2.6-17.3 48.3-30.9zM374.6 123.2h-.2c-.3-.1-.4-.4-.3-.8.2-.6.4-1.1.7-1.7.1-.3.5-.4.8-.3.3.1.4.5.3.8-.2.5-.4 1.1-.7 1.6-.2.3-.4.4-.6.4zm127.8-.4c-.1 0-.1 0 0 0-.8-.1-1.6-.1-2.4-.3-.3 0-.5-.3-.5-.7 0-.3.3-.5.7-.5.8.1 1.5.2 2.3.2.3 0 .6.3.5.6-.1.4-.3.7-.6.7zm5.9-.3c-.3 0-.5-.2-.6-.5 0-.3.2-.6.5-.7.8-.1 1.5-.3 2.3-.4.3-.1.6.1.7.4.1.3-.1.6-.4.7-.9.3-1.7.4-2.5.5zm-14-1.3h-.2c-.8-.3-1.5-.5-2.3-.8-.3-.1-.4-.5-.3-.8.1-.3.5-.4.8-.3.7.3 1.5.6 2.2.8.3.1.5.4.4.7-.2.2-.4.4-.6.4zm22-.9c-.2 0-.4-.1-.5-.4-.1-.3 0-.6.3-.8.7-.3 1.4-.6 2.1-1 .3-.1.6 0 .8.3.1.3 0 .6-.3.8-.7.3-1.5.7-2.2 1-.1.1-.2.1-.2.1zm-29.6-2.5c-.1 0-.2 0-.3-.1l-2.1-1.2c-.3-.2-.3-.5-.2-.8.2-.3.5-.3.8-.2.7.4 1.4.8 2 1.2.3.2.4.5.2.8 0 .2-.2.3-.4.3zm65.6-1c-.3 0-.6-.3-.6-.6s.3-.6.6-.6c.8 0 1.6 0 2.3-.1.3 0 .6.2.6.6 0 .3-.2.6-.6.6-.7.1-1.5.1-2.3.1zm-5.9-.3c-.1 0-.1 0 0 0-.5-.1-1-.1-1.5-.2-.3 0-.6-.1-1-.2-.3-.1-.5-.3-.5-.7.1-.3.3-.5.7-.5.3.1.6.1.9.1.5.1.9.1 1.4.2.3 0 .5.3.5.6 0 .5-.2.7-.5.7zm-22.9-.1c-.2 0-.4-.1-.5-.3-.2-.3-.1-.6.2-.8.6-.4 1.3-.9 1.9-1.4.3-.2.6-.2.8.1.2.3.2.6-.1.8-.6.5-1.3 1-2 1.4-.1.1-.2.2-.3.2zm37-.2c-.3 0-.5-.2-.6-.5 0-.3.2-.6.5-.7.8-.1 1.5-.2 2.3-.3.3-.1.6.2.7.5.1.3-.2.6-.5.7-.7.1-1.5.2-2.4.3.1 0 .1 0 0 0zm-182.9-.1c-.1 0-.2 0-.3-.1-.3-.1-.4-.5-.3-.8.3-.7.7-1.4 1.1-2.1.2-.3.5-.4.8-.3.3.2.4.5.3.8-.3.7-.7 1.4-1 2.1-.1.3-.4.4-.6.4zm160.7-1.3h-.2c-.8-.2-1.5-.5-2.3-.7-.3-.1-.5-.4-.3-.7.1-.3.4-.5.7-.3.7.3 1.5.5 2.2.7.3.1.5.4.4.7-.1.2-.3.3-.5.3zm30.4-.2c-.3 0-.5-.2-.6-.4-.1-.3.1-.6.4-.7.8-.2 1.5-.4 2.3-.6.3-.1.6.1.7.4.1.3-.1.6-.4.7-.8.2-1.5.4-2.3.6h-.1zm-88.9-1.4c-.1 0-.3 0-.3-.1-.6-.5-1.3-1-1.9-1.5-.3-.2-.3-.6-.1-.8.2-.3.6-.3.8-.1.6.5 1.2 1 1.9 1.5.3.2.3.6.1.8-.2.1-.3.2-.5.2zm96.8-.9c-.3 0-.5-.2-.6-.4-.1-.3.1-.6.4-.7.7-.2 1.5-.5 2.2-.8.3-.1.6.1.7.4.1.3-.1.6-.4.7-.8.3-1.5.5-2.3.8.2 0 .1 0 0 0zm-46.1-.5c-.1 0-.2 0-.3-.1-.7-.3-1.4-.7-2.1-1.1-.3-.2-.4-.5-.2-.8.2-.3.5-.4.8-.2.3.2.5.3.8.4l1.6-1.6c.2-.2.6-.3.8 0 .2.2.3.6 0 .8-.4.5-.9 1-1.4 1.4.1 0 .1.1.2.1.3.1.4.5.3.8 0 .2-.2.3-.5.3zm53.9-2.3c-.2 0-.4-.1-.5-.4-.1-.3 0-.6.3-.8.7-.3 1.5-.6 2.2-.9.3-.1.6 0 .8.3.1.3 0 .6-.3.8-.7.3-1.5.6-2.2.9-.1.1-.2.1-.3.1zm-202.8-.7c-.1 0-.2 0-.3-.1-.3-.2-.3-.5-.2-.8.4-.7.9-1.4 1.3-2 .2-.3.5-.3.8-.2.3.2.3.5.2.8-.4.6-.9 1.3-1.3 2-.1.2-.3.3-.5.3zm91.9-.9c-.1 0-.3-.1-.4-.2-.6-.5-1.1-1-1.7-1.6-.2-.2-.3-.6 0-.8.2-.2.6-.3.8 0 .6.6 1.2 1.1 1.7 1.6.2.2.3.6 0 .8-.1.1-.3.2-.4.2zm50-.4c-.1 0-.2 0-.3-.1-.6-.5-1.3-1-1.9-1.5-.3-.2-.3-.6-.1-.8.2-.3.6-.3.8-.1.6.5 1.2 1 1.9 1.4.3.2.3.6.1.8-.2.2-.4.3-.5.3zm68.6-1.1c-.2 0-.4-.1-.5-.3-.1-.3 0-.6.3-.8.7-.3 1.4-.6 2.2-.9.3-.1.6 0 .8.3.1.3 0 .6-.3.8-.7.3-1.4.6-2.2.9h-.3zm-56.8-1.6c-.1 0-.2 0-.3-.1-.3-.2-.3-.5-.1-.8.4-.6.9-1.3 1.3-1.9.2-.3.5-.3.8-.2.3.2.3.5.2.8-.4.7-.9 1.3-1.4 2-.2.1-.3.2-.5.2zm64.4-1.7c-.2 0-.4-.1-.5-.3-.1-.3 0-.6.3-.8.7-.3 1.4-.6 2.2-1 .3-.1.6 0 .8.3.1.3 0 .6-.3.8-.7.3-1.4.7-2.2 1h-.3zm-132.3-1c-.2 0-.3-.1-.4-.2-.6-.5-1.1-1.1-1.7-1.6-.2-.2-.2-.6 0-.8.2-.2.6-.2.8 0 .6.5 1.1 1.1 1.7 1.6.2.2.2.6 0 .8-.1.2-.2.2-.4.2zm-81 0c-.1 0-.3 0-.4-.1-.3-.2-.3-.6-.1-.8l1.5-1.8c.2-.3.6-.3.8-.1.3.2.3.6.1.8l-1.5 1.8c-.1.1-.3.2-.4.2zm130.8-.1c-.2 0-.3-.1-.4-.2-.6-.6-1.1-1.2-1.6-1.8-.2-.3-.2-.6.1-.8.2-.2.6-.2.8.1.5.6 1 1.2 1.6 1.7.2.2.2.6 0 .8-.2.2-.3.2-.5.2zm90.1-2.3c-.2 0-.4-.1-.5-.3-.1-.3 0-.6.3-.8.7-.3 1.4-.7 2.1-1 .3-.1.6 0 .8.3.1.3 0 .6-.3.8-.7.3-1.4.7-2.1 1-.2-.1-.2 0-.3 0zm-67.7-2c-.1 0-.2 0-.3-.1-.3-.1-.4-.5-.3-.8.3-.7.7-1.4 1-2.1.1-.3.5-.4.8-.3.3.1.4.5.3.8-.3.7-.7 1.5-1 2.2-.1.2-.3.3-.5.3zm-78.2-1.3c-.1 0-.3-.1-.4-.2-.6-.5-1.2-1.1-1.8-1.6-.2-.2-.3-.6-.1-.8.2-.3.6-.3.8-.1.6.5 1.2 1 1.8 1.6.2.2.3.6 0 .8 0 .3-.1.3-.3.3zm153.3-.4c-.2 0-.4-.1-.5-.3-.1-.3 0-.6.3-.8.7-.3 1.4-.7 2.1-1.1.3-.1.6 0 .8.3.1.3 0 .6-.3.8-.7.3-1.4.7-2.1 1.1h-.3zM392 95.9c-.2 0-.3-.1-.4-.2-.2-.2-.2-.6 0-.8.6-.5 1.2-1.1 1.8-1.6.3-.2.6-.2.8.1.2.3.2.6-.1.8-.6.5-1.2 1-1.7 1.6-.1.1-.3.1-.4.1zm120.1-.4c-.2 0-.4-.1-.5-.3-.4-.7-.9-1.4-1.3-2.1-.2-.3-.1-.6.2-.8.3-.2.6-.1.8.2.4.7.8 1.3 1.2 2 .2.3.1.6-.2.8 0 .2-.1.2-.2.2zm110-3.3c-.2 0-.4-.1-.5-.3-.2-.3 0-.6.3-.8.7-.4 1.4-.7 2.1-1.1.3-.2.6 0 .8.2.2.3 0 .6-.2.8-.7.4-1.4.7-2.1 1.1-.2.1-.3.1-.4.1zM455 91.1c-.1 0-.3 0-.3-.1-.6-.5-1.3-.9-1.9-1.4-.3-.2-.3-.5-.2-.8.2-.3.5-.3.8-.2.6.4 1.3.9 1.9 1.4.3.2.3.6.1.8 0 .2-.2.3-.4.3zm-56.6-.4c-.2 0-.4-.1-.5-.3-.2-.3-.1-.6.2-.8.7-.4 1.3-.9 2-1.3.3-.2.6-.1.8.2.2.3.1.6-.2.8-.7.4-1.3.8-2 1.3-.1.1-.1.1-.3.1zm144.4-.7h-.2c-.3-.1-.5-.4-.4-.7.3-.7.5-1.5.7-2.2.1-.3.4-.5.7-.4.3.1.5.4.4.7-.2.8-.4 1.5-.7 2.3-.1.1-.3.3-.5.3zm86.6-1.7c-.2 0-.4-.1-.5-.3-.2-.3-.1-.6.2-.8l2.1-1.2c.3-.2.6-.1.8.2.2.3.1.6-.2.8l-2.1 1.2c-.1.1-.2.1-.3.1zm-121.2-.1c-.2 0-.4-.1-.5-.4-.3-.7-.6-1.5-.8-2.3-.1-.3.1-.6.4-.7.3-.1.6.1.7.4.3.7.5 1.5.8 2.2.1.3 0 .6-.3.8h-.3zM448 86.7c-.1 0-.2 0-.3-.1-.7-.3-1.4-.7-2.1-1-.3-.1-.4-.5-.3-.8.1-.3.5-.4.8-.3.7.3 1.5.7 2.2 1 .3.1.4.5.3.8-.1.3-.4.4-.6.4zm-42.4-.1c-.2 0-.4-.1-.5-.3-.1-.3 0-.6.3-.8.7-.3 1.5-.7 2.2-1 .3-.1.6 0 .8.3.1.3 0 .6-.3.8l-2.1.9c-.2.1-.3.1-.4.1zm231-2.4c-.2 0-.4-.1-.5-.3-.2-.3-.1-.6.2-.8.7-.4 1.4-.8 2-1.2.3-.2.6-.1.8.2.2.3.1.6-.2.8-.7.4-1.4.8-2 1.2-.1.1-.2.1-.3.1zm-196.3-.5h-.2c-.8-.2-1.5-.4-2.3-.6-.3-.1-.5-.4-.4-.7.1-.3.4-.5.7-.4.8.2 1.6.4 2.3.6.3.1.5.4.4.7 0 .3-.3.4-.5.4zm-26.9 0c-.3 0-.5-.2-.6-.4-.1-.3.1-.6.4-.7.8-.2 1.5-.4 2.3-.6.3-.1.6.1.7.4.1.3-.1.6-.4.7-.8.2-1.5.4-2.3.6h-.1zm18.8-1.5c-.1 0-.1 0 0 0-.8-.1-1.6-.2-2.4-.2-.3 0-.6-.3-.5-.6 0-.3.3-.6.6-.5.8 0 1.6.1 2.4.2.3 0 .5.3.5.6-.1.3-.4.5-.6.5zm-10.7 0c-.3 0-.5-.2-.6-.5 0-.3.2-.6.5-.6.8-.1 1.6-.2 2.4-.2.3 0 .6.2.6.5s-.2.6-.5.6c-.7 0-1.5.1-2.4.2.1 0 0 0 0 0zm123.3-.3c-.1 0-.1 0 0 0-.4-.1-.6-.3-.6-.7.1-.8.3-1.5.3-2.3 0-.3.3-.5.6-.5s.5.3.5.7l-.3 2.4c0 .2-.3.4-.5.4zm-38.9-1.7c-.3 0-.5-.2-.6-.5-.2-.8-.3-1.6-.4-2.4 0-.3.2-.6.5-.7.3 0 .6.2.7.5.1.8.2 1.5.4 2.3.1.3-.2.6-.5.7 0 .1 0 .1-.1.1zm137.8-.3c-.2 0-.4-.1-.5-.3-.2-.3-.1-.6.2-.8.7-.4 1.4-.8 2-1.2.3-.2.6-.1.8.2.2.3.1.6-.2.8-.7.4-1.4.8-2 1.2-.1.1-.2.1-.3.1zm7.1-4.4c-.2 0-.4-.1-.5-.3-.2-.3-.1-.6.2-.8.7-.4 1.3-.9 2-1.3.3-.2.6-.1.8.2.2.3.1.6-.2.8-.7.4-1.3.9-2 1.3-.1.1-.2.1-.3.1zm-105.3-1.8c-.3 0-.6-.3-.6-.6v-2.3c0-.3.3-.6.6-.6s.6.3.6.6v2.4c0 .2-.3.5-.6.5zm-40.4-1.8c-.3 0-.6-.3-.6-.6 0-.8 0-1.6.1-2.4 0-.3.3-.6.6-.5.3 0 .6.3.5.6 0 .8-.1 1.6-.1 2.3.1.4-.1.6-.5.6zm152.6-1c-.2 0-.4-.1-.5-.3-.2-.3-.1-.6.2-.8.7-.4 1.3-.9 2-1.3.3-.2.6-.1.8.2.2.3.1.6-.2.8-.7.4-1.3.9-2 1.3-.1.1-.2.1-.3.1zm6.8-4.7c-.2 0-.4-.1-.5-.3-.2-.3-.1-.6.1-.8.6-.5 1.3-.9 1.9-1.4.3-.2.6-.1.8.1.2.3.1.6-.1.8-.6.5-1.3.9-1.9 1.4-.1.2-.2.2-.3.2zM545 65.4c-.3 0-.5-.2-.6-.5-.1-.8-.2-1.5-.4-2.3-.1-.3.2-.6.5-.7.3-.1.6.2.7.5.1.8.3 1.6.4 2.4.1.2-.2.5-.6.6.1 0 .1 0 0 0zm-39.1-1.7h-.1c-.3-.1-.5-.4-.5-.7.2-.8.3-1.6.5-2.3.1-.3.4-.5.7-.4.3.1.5.4.4.7-.2.8-.3 1.5-.5 2.3 0 .2-.2.4-.5.4zm37.3-6.4c-.3 0-.5-.2-.6-.4-.2-.8-.5-1.5-.7-2.2-.1-.3 0-.6.3-.7.3-.1.6 0 .7.3.3.8.5 1.5.8 2.3.1.3-.1.6-.4.7h-.1zm-35-1.6h-.2c-.3-.1-.4-.5-.3-.8.3-.7.6-1.5.9-2.2.1-.3.5-.4.8-.3.3.1.4.5.3.8-.3.7-.6 1.4-.9 2.2-.1.2-.3.3-.6.3zm31.9-6.1c-.2 0-.4-.1-.5-.3-.4-.7-.8-1.4-1.2-2-.2-.3-.1-.6.2-.8.3-.2.6-.1.8.2.4.7.9 1.4 1.2 2.1.2.3 0 .6-.2.8h-.3zm-28-1.2c-.1 0-.2 0-.3-.1-.3-.2-.3-.5-.2-.8.5-.7.9-1.3 1.4-1.9.2-.3.6-.3.8-.1.3.2.3.6.1.8-.5.6-.9 1.2-1.4 1.9-.1.1-.2.2-.4.2zm23-5.4c-.1 0-.3-.1-.4-.2-.6-.5-1.2-1-1.8-1.4-.3-.2-.3-.5-.2-.8.2-.3.5-.3.8-.2.7.4 1.3.9 1.9 1.5.2.2.3.6 0 .8 0 .2-.1.3-.3.3zm-17.3-.6c-.2 0-.3-.1-.5-.2-.2-.3-.1-.6.1-.8.7-.5 1.4-.9 2.1-1.3.3-.2.6 0 .8.2.2.3 0 .6-.2.8-.7.3-1.3.8-1.9 1.2-.2 0-.3.1-.4.1zm9.9-2.9h-.3c-.7-.1-1.4-.1-2.1 0-.3 0-.6-.2-.6-.5s.2-.6.5-.6c.8-.1 1.5 0 2.3.1h.2c.3 0 .5.3.5.7.1 0-.2.3-.5.3z" style="fill:#ebab03"/></svg>