<svg xmlns="http://www.w3.org/2000/svg" xml:space="preserve" style="enable-background:new 0 0 15 13" viewBox="0 0 15 13"><path d="M7.5 2.7c1.9 0 3.4 1.5 3.4 3.4 0 .4-.1.9-.3 1.2l2 2c1-.9 1.8-2 2.3-3.2-1.1-3-4-5.1-7.4-5.1-1 0-1.8.2-2.7.5L6.2 3c.4-.2.9-.3 1.3-.3zM.7.9l1.8 1.8C1.4 3.6.5 4.8 0 6.2c1.2 3 4.1 5.1 7.5 5.1 1 0 2.1-.2 3-.5l2.3 2.3.9-.9L1.6 0 .7.9zm3.8 3.8 1 1v.5c0 1.2.9 2.1 2.1 2.1.1 0 .3 0 .5-.1l1 1c-.5.3-1 .4-1.5.4-1.9 0-3.4-1.5-3.4-3.4-.1-.6 0-1.1.3-1.5zm2.9-.6 2.1 2.1v-.1c0-1.2-.9-2.1-2.1-2 .1 0 .1 0 0 0z" style="fill:#fc3636"/></svg>