<svg xmlns="http://www.w3.org/2000/svg" xml:space="preserve" style="enable-background:new 0 0 15 15" viewBox="0 0 15 15"><path d="M10.6 0H4.4C1.6 0 0 1.6 0 4.4v6.3C0 13.4 1.6 15 4.4 15h6.3c2.7 0 4.4-1.6 4.4-4.4V4.4C15 1.6 13.4 0 10.6 0zM6 9.7l-1.7 1.7c-.1.1-.3.2-.4.2s-.3-.1-.4-.2l-.6-.6c-.2-.2-.2-.6 0-.8.2-.2.6-.2.8 0l.2.2 1.3-1.3c.2-.2.6-.2.8 0 .2.2.2.6 0 .8zm0-5.3L4.3 6.1c-.1.1-.3.2-.4.2s-.3-.1-.4-.2l-.6-.5c-.2-.3-.2-.6 0-.8.2-.2.6-.2.8 0l.2.2 1.3-1.3c.2-.2.6-.2.8 0 .2.1.2.5 0 .7zm5.7 6.6h-4c-.3 0-.6-.3-.6-.6s.3-.6.6-.6h3.9c.3 0 .6.3.6.6s-.2.6-.5.6zm0-5.3h-4c-.3 0-.6-.3-.6-.6s.3-.6.6-.6h3.9c.3 0 .6.3.6.6 0 .4-.2.6-.5.6z" style="fill:#1a1b1f"/></svg>