<svg xmlns="http://www.w3.org/2000/svg" xml:space="preserve" style="enable-background:new 0 0 15 15" viewBox="0 0 15 15"><path d="M11.7 0C9.9 0 8.4 1.5 8.4 3.3c0 1.7 2.6 4.7 2.9 5 .1.1.2.2.3.2.1 0 .3-.1.3-.2.5-.4 3.1-3.3 3.1-5C15 1.5 13.5 0 11.7 0zm0 4.7c-.8 0-1.4-.6-1.4-1.4s.6-1.4 1.4-1.4c.8 0 1.4.6 1.4 1.4s-.6 1.4-1.4 1.4zM.3 5.5c-.2.1-.3.3-.3.4v8.6c0 .2.1.3.2.4.1.1.2.1.3.1h.2l4-1.6V3.8L.3 5.5z" style="fill:#1a1b1f"/><path d="M12.8 8.9c-.3.3-.6.5-1 .5s-.8-.2-1-.5l-.4-.4V15l4.4-1.8c.2-.1.3-.2.3-.4V5.9c-.9 1.3-1.9 2.5-2.3 3zM7.8 4.6l-2.2-.8v9.6l3.8 1.5V7.3c-.6-.8-1.2-1.8-1.6-2.7z" style="fill:#1a1b1f"/></svg>