<svg xmlns="http://www.w3.org/2000/svg" xml:space="preserve" style="enable-background:new 0 0 16 16" viewBox="0 0 16 16"><path d="M12.7 9.9c-.3-.3-.7-.5-1.1-.5-.4 0-.8.2-1.2.5L9.3 11c-.1 0-.2-.1-.3-.1-.1-.1-.2-.1-.3-.2-1-.6-1.9-1.5-2.8-2.5-.4-.6-.7-1.1-.9-1.5l.8-.8.3-.3c.7-.7.7-1.6 0-2.3l-1-.9c-.1-.1-.2-.2-.3-.4l-.6-.6c-.3-.3-.7-.5-1.1-.5-.4 0-.8.2-1.1.5L.7 2.6c-.4.4-.6.9-.7 1.6-.1 1 .2 1.9.4 2.5C1 8.1 1.8 9.5 3 11c1.5 1.8 3.3 3.2 5.3 4.1.8.4 1.8.8 3 .9h.2c.8 0 1.4-.3 2-.8l.6-.6.4-.4c.3-.3.5-.8.5-1.2 0-.4-.2-.8-.5-1.2l-1.8-1.9zm1.2 3.6-.4.4-.7.7c-.3.4-.7.5-1.3.5h-.2c-1-.1-1.9-.5-2.6-.8-1.9-.9-3.6-2.2-5-3.9C2.6 9 1.8 7.7 1.3 6.3 1 5.5.9 4.8.9 4.2c0-.4.2-.7.5-1L2.6 2c.2-.2.3-.2.5-.2s.4.1.5.2c.2.3.4.5.6.7l.3.3.9.9c.4.4.4.7 0 1-.1.2-.2.3-.3.4l-.8.8c-.3.3-.3.6-.2.8.2.6.6 1.1 1.1 1.8.9 1.1 1.9 2 3 2.7.1.1.3.2.4.2.1.1.2.1.3.2.1.1.2.1.3.1.3 0 .5-.2.5-.2l1.2-1.2c.1-.1.3-.3.5-.3s.4.1.5.2l1.9 1.9c.4.5.4.8.1 1.2zM8.6 3.8c.9.2 1.7.6 2.4 1.2.6.6 1.1 1.4 1.2 2.3 0 .2.2.4.4.4h.1c.3 0 .4-.3.4-.5-.2-1.1-.7-2-1.5-2.8-.8-.8-1.8-1.3-2.8-1.5-.2 0-.5.1-.5.4-.1.2.1.5.3.5zM16 7.1c-.3-1.8-1.1-3.4-2.4-4.6S10.7.3 8.9 0c-.2 0-.4.1-.5.4 0 .2.1.5.4.5 1.6.3 3 1 4.2 2.2 1.1 1.1 1.9 2.6 2.2 4.2 0 .2.2.4.4.4h.1c.2-.2.3-.4.3-.6z" style="fill:#fff"/></svg>