<svg xmlns="http://www.w3.org/2000/svg" xml:space="preserve" style="enable-background:new 0 0 13 15" viewBox="0 0 13 15"><path d="M9 9.9c1.6-2.5 1.4-2.2 1.4-2.3.6-.8.9-1.8.9-2.8C11.3 2.2 9.1 0 6.5 0 3.9 0 1.7 2.2 1.7 4.9c0 1 .3 2 .9 2.8L4 9.9c-1.5.2-4 .9-4 2.5 0 .6.4 1.3 2.1 2 1.2.4 2.7.6 4.4.6 3.1 0 6.5-.9 6.5-2.6 0-1.6-2.5-2.3-4-2.5zM3.4 7.2s-.1 0 0 0c-.5-.7-.8-1.5-.8-2.3 0-2.2 1.7-4 3.9-4s3.9 1.8 3.9 4c0 .8-.2 1.6-.7 2.3 0 .1.2-.3-3.2 5.1L3.4 7.2zm3.1 6.9c-3.4 0-5.6-1-5.6-1.8 0-.5 1.1-1.3 3.7-1.6l1.6 2.5c.1.1.2.2.4.2.1 0 .3-.1.4-.2l1.6-2.5c2.5.3 3.7 1.1 3.7 1.6-.2.8-2.4 1.8-5.8 1.8z" style="fill:#fff"/><path d="M6.5 2.7c-1.2 0-2.2 1-2.2 2.2s1 2.2 2.2 2.2 2.2-1 2.2-2.2-1-2.2-2.2-2.2zm0 3.5c-.7 0-1.3-.6-1.3-1.3s.6-1.3 1.3-1.3 1.3.6 1.3 1.3-.6 1.3-1.3 1.3z" style="fill:#fff"/></svg>