<svg width="15" height="12" viewBox="0 0 15 12" fill="none" xmlns="http://www.w3.org/2000/svg">
    <path d="M13.9804 4.83426L12.334 10.2857L10.5938 11.2458H6.18164L2.66602 10.2857C2.66602 10.2857 1.37112 5.97422 1.08101 5.02288L1.01955 4.83426C0.984421 4.71429 1.00193 4.58571 1.0722 4.47433L2.10056 4.06284L4.67869 5.03996L6.63872 1.78281H8.36128L10.3213 5.03996L12.8994 4.06284L13.9804 4.83426Z" fill="#FFD400"/>
    <path d="M13.9804 4.83426L12.334 10.2857L10.5938 11.2458H7.5V1.78281H8.36128L10.3213 5.03996L12.8994 4.06284L13.9804 4.83426Z" fill="#FDBF00"/>
    <path d="M2.66602 10.2857V11.5714C2.66602 11.8114 2.85931 12 3.10547 12H11.8945C12.1407 12 12.334 11.8114 12.334 11.5714V10.2857H2.66602Z" fill="#FDBF00"/>
    <path d="M7.5 0C6.77044 0 6.18164 0.574219 6.18164 1.28571C6.18164 2.01429 6.79688 2.57143 7.5 2.57143C8.22956 2.57143 8.81836 1.98862 8.81836 1.28571C8.81836 0.574219 8.22956 0 7.5 0Z" fill="#FDBF00"/>
    <path d="M13.6816 5.14286C13.3101 5.14286 12.986 5.00179 12.747 4.76864C12.4933 4.50792 12.3633 4.19576 12.3633 3.85714C12.3633 3.14821 12.9547 2.57143 13.6816 2.57143C14.4086 2.57143 15 3.14821 15 3.85714C15 4.56607 14.4086 5.14286 13.6816 5.14286Z" fill="#FF9F00"/>
    <path d="M1.31836 5.14286C0.591431 5.14286 0 4.56607 0 3.85714C0 3.14821 0.591431 2.57143 1.31836 2.57143C2.04529 2.57143 2.63672 3.14821 2.63672 3.85714C2.63672 4.57433 2.04472 5.14286 1.31836 5.14286Z" fill="#FDBF00"/>
    <path d="M7.5 2.57143V0C8.22956 0 8.81836 0.574219 8.81836 1.28571C8.81836 1.98862 8.22956 2.57143 7.5 2.57143Z" fill="#FF9F00"/>
    <path d="M12.334 10.2857V11.5714C12.334 11.8114 12.1407 12 11.8945 12H7.5V10.2857L12.334 10.2857Z" fill="#FF9F00"/>
    <path d="M9.67964 6.44565C9.62689 6.28281 9.48635 6.17143 9.31938 6.14576L8.33496 6.00859L7.89551 5.15993C7.81643 5.02288 7.65816 4.94565 7.5 4.94565C7.34184 4.94565 7.18357 5.02288 7.10449 5.15993L6.66504 6.00859L5.68062 6.14576C5.51365 6.17143 5.37312 6.28281 5.32036 6.44565C5.27641 6.6 5.32036 6.77143 5.44338 6.88281L6.14651 7.54286L5.97954 8.46864C5.9531 8.62288 6.01467 8.78572 6.15532 8.88862C6.28716 8.98292 6.47175 8.99141 6.61228 8.92288L7.5 8.47712L8.38772 8.92288C8.53706 9 8.71284 8.98281 8.8448 8.88862C8.98533 8.78572 9.0469 8.62288 9.02046 8.46853L8.85349 7.54286L9.55662 6.88281C9.67964 6.77143 9.7237 6.6 9.67964 6.44565Z" fill="#FF9F00"/>
    <path d="M8.38772 8.92288L7.5 8.47712V4.94565C7.65816 4.94565 7.81643 5.02288 7.89551 5.15993L8.33496 6.00859L9.31938 6.14576C9.48635 6.17143 9.62689 6.28281 9.67964 6.44565C9.72359 6.6 9.67964 6.77143 9.55662 6.88281L8.85349 7.54286L9.02046 8.46864C9.0469 8.62288 8.98533 8.78572 8.84468 8.88862C8.71285 8.98281 8.53706 9 8.38772 8.92288Z" fill="#FF7816"/>
</svg>
